<svg id="Group_234" data-name="Group 234" xmlns="http://www.w3.org/2000/svg" width="141.585" height="108.98" viewBox="0 0 141.585 108.98">
  <g id="Group_57" data-name="Group 57" transform="translate(40.573 83.115)">
    <g id="Group_56" data-name="Group 56" transform="translate(0 0)">
      <rect id="Rectangle_25" data-name="Rectangle 25" width="2.091" height="11.507" transform="translate(0 0.007) rotate(-0.203)" fill="#fff"/>
    </g>
  </g>
  <g id="Path_16" data-name="Path 16" transform="translate(28.095 64.227)">
    <g id="Group_58" data-name="Group 58" transform="translate(0 0)">
      <rect id="Rectangle_26" data-name="Rectangle 26" width="2.091" height="15.024" transform="translate(0 1.439) rotate(-43.487)" fill="#fff"/>
    </g>
  </g>
  <g id="Path_16-2" data-name="Path 16" transform="translate(30.649 60.773)">
    <g id="Group_59" data-name="Group 59">
      <rect id="Rectangle_27" data-name="Rectangle 27" width="22.515" height="2.091" fill="#fff"/>
    </g>
  </g>
  <g id="Path_16-3" data-name="Path 16" transform="translate(43.832 47.415)">
    <g id="Group_60" data-name="Group 60" transform="translate(0 0)">
      <rect id="Rectangle_28" data-name="Rectangle 28" width="2.092" height="14.4" transform="matrix(0.726, -0.688, 0.688, 0.726, 0, 1.439)" fill="#fff"/>
    </g>
  </g>
  <g id="Ellipse_5" data-name="Ellipse 5" transform="translate(35.665 38.893)">
    <g id="Group_62" data-name="Group 62">
      <g id="Group_61" data-name="Group 61">
        <path id="Path_98" data-name="Path 98" d="M326.558,648.246a5.953,5.953,0,1,1,5.953-5.952A5.96,5.96,0,0,1,326.558,648.246Zm0-9.814a3.861,3.861,0,1,0,3.862,3.862A3.866,3.866,0,0,0,326.558,638.432Z" transform="translate(-320.604 -636.341)" fill="#fff"/>
      </g>
    </g>
  </g>
  <g id="Ellipse_5-2" data-name="Ellipse 5" transform="translate(35.665 73.124)">
    <g id="Group_64" data-name="Group 64">
      <g id="Group_63" data-name="Group 63">
        <path id="Path_99" data-name="Path 99" d="M326.558,697.348a5.953,5.953,0,1,1,5.953-5.953A5.961,5.961,0,0,1,326.558,697.348Zm0-9.815a3.862,3.862,0,1,0,3.862,3.862A3.866,3.866,0,0,0,326.558,687.533Z" transform="translate(-320.604 -685.442)" fill="#fff"/>
      </g>
    </g>
  </g>
  <g id="Ellipse_6" data-name="Ellipse 6" transform="translate(51.253 55.634)">
    <g id="Group_66" data-name="Group 66">
      <g id="Group_65" data-name="Group 65">
        <path id="Path_100" data-name="Path 100" d="M348.916,672.262a5.953,5.953,0,1,1,5.953-5.953A5.959,5.959,0,0,1,348.916,672.262Zm0-9.815a3.862,3.862,0,1,0,3.862,3.862A3.866,3.866,0,0,0,348.916,662.446Z" transform="translate(-342.964 -660.355)" fill="#fff"/>
      </g>
    </g>
  </g>
  <g id="Ellipse_7" data-name="Ellipse 7" transform="translate(20.655 55.634)">
    <g id="Group_68" data-name="Group 68">
      <g id="Group_67" data-name="Group 67">
        <path id="Path_101" data-name="Path 101" d="M305.026,672.262a5.953,5.953,0,1,1,5.953-5.953A5.959,5.959,0,0,1,305.026,672.262Zm0-9.815a3.862,3.862,0,1,0,3.862,3.862A3.866,3.866,0,0,0,305.026,662.446Z" transform="translate(-299.074 -660.355)" fill="#fff"/>
      </g>
    </g>
  </g>
  <g id="Ellipse_5-3" data-name="Ellipse 5" transform="translate(21.718 7.011)">
    <g id="Group_70" data-name="Group 70">
      <g id="Group_69" data-name="Group 69">
        <path id="Path_102" data-name="Path 102" d="M305.488,600.389a4.89,4.89,0,1,1,4.891-4.89A4.9,4.9,0,0,1,305.488,600.389Zm0-7.689a2.8,2.8,0,1,0,2.8,2.8A2.8,2.8,0,0,0,305.488,592.7Z" transform="translate(-300.599 -590.609)" fill="#fff"/>
      </g>
    </g>
  </g>
  <g id="Ellipse_5-4" data-name="Ellipse 5" transform="translate(16.64 15.971)">
    <g id="Group_72" data-name="Group 72" transform="translate(27.951)">
      <g id="Group_71" data-name="Group 71">
        <path id="Path_103" data-name="Path 103" d="M333.408,603.461" transform="translate(-333.408 -603.461)" fill="#fff"/>
      </g>
    </g>
    <g id="Group_74" data-name="Group 74" transform="translate(0 1.93)">
      <g id="Group_73" data-name="Group 73">
        <path id="Path_104" data-name="Path 104" d="M343.233,697.062h-19.8v-8.034a5.028,5.028,0,1,0-10.055,0v8.034H293.315v-84.9h21.971v2.091H295.406V694.97H311.29v-5.943a7.119,7.119,0,1,1,14.238,0v5.943h15.614V608.32H319.455v20.813h-2.091v-22.9h25.87Z" transform="translate(-293.315 -606.229)" fill="#fff"/>
      </g>
    </g>
  </g>
  <g id="Group_76" data-name="Group 76" transform="translate(49.87 0)">
    <g id="Group_75" data-name="Group 75">
      <path id="Path_105" data-name="Path 105" d="M369.57,688.408h-2.091V582.644H343.072V599.5H340.98V580.553H369.57Z" transform="translate(-340.98 -580.553)" fill="#fff"/>
    </g>
  </g>
  <g id="Group_78" data-name="Group 78" transform="translate(2.22 106.867)">
    <g id="Group_77" data-name="Group 77">
      <rect id="Rectangle_29" data-name="Rectangle 29" width="139.365" height="2.091" fill="#fff"/>
    </g>
  </g>
  <g id="Group_115" data-name="Group 115" transform="translate(58.683 5.796)">
    <g id="Group_80" data-name="Group 80" transform="translate(0 0.006)">
      <g id="Group_79" data-name="Group 79">
        <path id="Path_106" data-name="Path 106" d="M354.974,588.875a1.275,1.275,0,0,0-1.352,1.352v1.49a1.352,1.352,0,0,0,2.7,0v-1.49A1.354,1.354,0,0,0,354.974,588.875Z" transform="translate(-353.622 -588.875)" fill="#fff"/>
      </g>
    </g>
    <g id="Group_82" data-name="Group 82" transform="translate(5.546)">
      <g id="Group_81" data-name="Group 81">
        <path id="Path_107" data-name="Path 107" d="M362.929,593.059a1.275,1.275,0,0,0,1.352-1.352v-1.49a1.352,1.352,0,0,0-2.7,0v1.49A1.354,1.354,0,0,0,362.929,593.059Z" transform="translate(-361.577 -588.866)" fill="#fff"/>
      </g>
    </g>
    <g id="Group_84" data-name="Group 84" transform="translate(10.954)">
      <g id="Group_83" data-name="Group 83">
        <path id="Path_108" data-name="Path 108" d="M370.687,593.059a1.275,1.275,0,0,0,1.352-1.352v-1.49a1.352,1.352,0,1,0-2.7,0v1.49A1.454,1.454,0,0,0,370.687,593.059Z" transform="translate(-369.335 -588.866)" fill="#fff"/>
      </g>
    </g>
    <g id="Group_86" data-name="Group 86" transform="translate(0 5.952)">
      <g id="Group_85" data-name="Group 85">
        <path id="Path_109" data-name="Path 109" d="M354.974,597.4a1.276,1.276,0,0,0-1.352,1.352v1.489a1.352,1.352,0,0,0,2.7,0v-1.489A1.275,1.275,0,0,0,354.974,597.4Z" transform="translate(-353.622 -597.404)" fill="#fff"/>
      </g>
    </g>
    <g id="Group_88" data-name="Group 88" transform="translate(5.546 5.815)">
      <g id="Group_87" data-name="Group 87">
        <path id="Path_110" data-name="Path 110" d="M362.929,601.4a1.275,1.275,0,0,0,1.352-1.352v-1.49a1.352,1.352,0,0,0-2.7,0v1.49A1.275,1.275,0,0,0,362.929,601.4Z" transform="translate(-361.577 -597.207)" fill="#fff"/>
      </g>
    </g>
    <g id="Group_90" data-name="Group 90" transform="translate(10.954 5.815)">
      <g id="Group_89" data-name="Group 89">
        <path id="Path_111" data-name="Path 111" d="M370.687,601.4a1.275,1.275,0,0,0,1.352-1.352v-1.49a1.352,1.352,0,0,0-2.7,0v1.49A1.353,1.353,0,0,0,370.687,601.4Z" transform="translate(-369.335 -597.207)" fill="#fff"/>
      </g>
    </g>
    <g id="Group_92" data-name="Group 92" transform="translate(10.954 11.761)">
      <g id="Group_91" data-name="Group 91">
        <path id="Path_112" data-name="Path 112" d="M370.687,609.929a1.274,1.274,0,0,0,1.352-1.352v-1.489a1.352,1.352,0,1,0-2.7,0v1.489A1.453,1.453,0,0,0,370.687,609.929Z" transform="translate(-369.335 -605.736)" fill="#fff"/>
      </g>
    </g>
    <g id="Group_94" data-name="Group 94" transform="translate(10.954 18.252)">
      <g id="Group_93" data-name="Group 93">
        <path id="Path_113" data-name="Path 113" d="M370.687,619.24a1.275,1.275,0,0,0,1.352-1.352V616.4a1.352,1.352,0,1,0-2.7,0v1.49A1.353,1.353,0,0,0,370.687,619.24Z" transform="translate(-369.335 -615.047)" fill="#fff"/>
      </g>
    </g>
    <g id="Group_96" data-name="Group 96" transform="translate(10.954 24.205)">
      <g id="Group_95" data-name="Group 95">
        <path id="Path_114" data-name="Path 114" d="M370.687,627.779a1.275,1.275,0,0,0,1.352-1.352v-1.489a1.352,1.352,0,1,0-2.7,0v1.489A1.454,1.454,0,0,0,370.687,627.779Z" transform="translate(-369.335 -623.586)" fill="#fff"/>
      </g>
    </g>
    <g id="Group_98" data-name="Group 98" transform="translate(10.954 30.013)">
      <g id="Group_97" data-name="Group 97">
        <path id="Path_115" data-name="Path 115" d="M370.687,636.11a1.275,1.275,0,0,0,1.352-1.352v-1.49a1.352,1.352,0,0,0-2.7,0v1.49A1.353,1.353,0,0,0,370.687,636.11Z" transform="translate(-369.335 -631.917)" fill="#fff"/>
      </g>
    </g>
    <g id="Group_100" data-name="Group 100" transform="translate(10.954 35.966)">
      <g id="Group_99" data-name="Group 99">
        <path id="Path_116" data-name="Path 116" d="M370.687,644.649a1.275,1.275,0,0,0,1.352-1.353v-1.489a1.352,1.352,0,1,0-2.7,0V643.3A1.454,1.454,0,0,0,370.687,644.649Z" transform="translate(-369.335 -640.456)" fill="#fff"/>
      </g>
    </g>
    <g id="Group_102" data-name="Group 102" transform="translate(10.954 41.781)">
      <g id="Group_101" data-name="Group 101">
        <path id="Path_117" data-name="Path 117" d="M370.687,652.99a1.275,1.275,0,0,0,1.352-1.352v-1.489a1.352,1.352,0,1,0-2.7,0v1.489A1.357,1.357,0,0,0,370.687,652.99Z" transform="translate(-369.335 -648.797)" fill="#fff"/>
      </g>
    </g>
    <g id="Group_104" data-name="Group 104" transform="translate(10.954 47.727)">
      <g id="Group_103" data-name="Group 103">
        <path id="Path_118" data-name="Path 118" d="M370.687,661.519a1.275,1.275,0,0,0,1.352-1.352v-1.49a1.352,1.352,0,1,0-2.7,0v1.49A1.454,1.454,0,0,0,370.687,661.519Z" transform="translate(-369.335 -657.326)" fill="#fff"/>
      </g>
    </g>
    <g id="Group_106" data-name="Group 106" transform="translate(10.954 53.542)">
      <g id="Group_105" data-name="Group 105">
        <path id="Path_119" data-name="Path 119" d="M370.687,669.86a1.275,1.275,0,0,0,1.352-1.352v-1.49a1.352,1.352,0,1,0-2.7,0v1.49A1.356,1.356,0,0,0,370.687,669.86Z" transform="translate(-369.335 -665.667)" fill="#fff"/>
      </g>
    </g>
    <g id="Group_108" data-name="Group 108" transform="translate(10.954 59.863)">
      <g id="Group_107" data-name="Group 107">
        <path id="Path_120" data-name="Path 120" d="M370.687,678.927a1.275,1.275,0,0,0,1.352-1.352v-1.489a1.352,1.352,0,1,0-2.7,0v1.489A1.353,1.353,0,0,0,370.687,678.927Z" transform="translate(-369.335 -674.734)" fill="#fff"/>
      </g>
    </g>
    <g id="Group_110" data-name="Group 110" transform="translate(10.954 65.816)">
      <g id="Group_109" data-name="Group 109">
        <path id="Path_121" data-name="Path 121" d="M370.687,687.466a1.275,1.275,0,0,0,1.352-1.352v-1.49a1.352,1.352,0,1,0-2.7,0v1.49A1.454,1.454,0,0,0,370.687,687.466Z" transform="translate(-369.335 -683.273)" fill="#fff"/>
      </g>
    </g>
    <g id="Group_112" data-name="Group 112" transform="translate(10.954 71.631)">
      <g id="Group_111" data-name="Group 111">
        <path id="Path_122" data-name="Path 122" d="M370.687,695.807a1.275,1.275,0,0,0,1.352-1.352v-1.49a1.352,1.352,0,1,0-2.7,0v1.49A1.356,1.356,0,0,0,370.687,695.807Z" transform="translate(-369.335 -691.614)" fill="#fff"/>
      </g>
    </g>
    <g id="Group_114" data-name="Group 114" transform="translate(10.954 77.577)">
      <g id="Group_113" data-name="Group 113">
        <path id="Path_123" data-name="Path 123" d="M370.687,704.336a1.275,1.275,0,0,0,1.352-1.352v-1.49a1.352,1.352,0,0,0-2.7,0v1.49A1.454,1.454,0,0,0,370.687,704.336Z" transform="translate(-369.335 -700.143)" fill="#fff"/>
      </g>
    </g>
  </g>
  <g id="Group_130" data-name="Group 130" transform="translate(22.049 32.449)">
    <g id="Group_117" data-name="Group 117">
      <g id="Group_116" data-name="Group 116">
        <path id="Path_124" data-name="Path 124" d="M302.425,631.693a1.275,1.275,0,0,0,1.352-1.352v-1.891a1.352,1.352,0,1,0-2.7,0v1.891A1.278,1.278,0,0,0,302.425,631.693Z" transform="translate(-301.073 -627.098)" fill="#fff"/>
      </g>
    </g>
    <g id="Group_119" data-name="Group 119" transform="translate(5.408)">
      <g id="Group_118" data-name="Group 118">
        <path id="Path_125" data-name="Path 125" d="M310.182,631.693a1.275,1.275,0,0,0,1.352-1.352v-1.891a1.352,1.352,0,1,0-2.7,0v1.891A1.354,1.354,0,0,0,310.182,631.693Z" transform="translate(-308.83 -627.098)" fill="#fff"/>
      </g>
    </g>
    <g id="Group_121" data-name="Group 121" transform="translate(10.954)">
      <g id="Group_120" data-name="Group 120">
        <path id="Path_126" data-name="Path 126" d="M318.137,631.693a1.275,1.275,0,0,0,1.352-1.352v-1.891a1.352,1.352,0,1,0-2.7,0v1.891A1.275,1.275,0,0,0,318.137,631.693Z" transform="translate(-316.785 -627.098)" fill="#fff"/>
      </g>
    </g>
    <g id="Group_123" data-name="Group 123" transform="translate(0 7.712)">
      <g id="Group_122" data-name="Group 122">
        <path id="Path_127" data-name="Path 127" d="M302.425,642.755a1.276,1.276,0,0,0,1.352-1.352v-1.89a1.352,1.352,0,1,0-2.7,0v1.89A1.357,1.357,0,0,0,302.425,642.755Z" transform="translate(-301.073 -638.16)" fill="#fff"/>
      </g>
    </g>
    <g id="Group_125" data-name="Group 125" transform="translate(5.408 7.712)">
      <g id="Group_124" data-name="Group 124">
        <path id="Path_128" data-name="Path 128" d="M310.182,642.755a1.275,1.275,0,0,0,1.352-1.352v-1.89a1.352,1.352,0,1,0-2.7,0v1.89A1.454,1.454,0,0,0,310.182,642.755Z" transform="translate(-308.83 -638.16)" fill="#fff"/>
      </g>
    </g>
    <g id="Group_127" data-name="Group 127" transform="translate(0 15.279)">
      <g id="Group_126" data-name="Group 126">
        <path id="Path_129" data-name="Path 129" d="M302.425,653.609a1.275,1.275,0,0,0,1.352-1.352v-1.891a1.352,1.352,0,0,0-2.7,0v1.891A1.278,1.278,0,0,0,302.425,653.609Z" transform="translate(-301.073 -649.015)" fill="#fff"/>
      </g>
    </g>
    <g id="Group_129" data-name="Group 129" transform="translate(5.408 15.279)">
      <g id="Group_128" data-name="Group 128">
        <path id="Path_130" data-name="Path 130" d="M310.182,653.609a1.275,1.275,0,0,0,1.352-1.352v-1.891a1.352,1.352,0,0,0-2.7,0v1.891A1.354,1.354,0,0,0,310.182,653.609Z" transform="translate(-308.83 -649.015)" fill="#fff"/>
      </g>
    </g>
  </g>
  <g id="Group_151" data-name="Group 151" transform="translate(46.522 24.882)">
    <g id="Group_132" data-name="Group 132" transform="translate(10.954)">
      <g id="Group_131" data-name="Group 131">
        <path id="Path_131" data-name="Path 131" d="M353.242,620.839a1.275,1.275,0,0,1-1.352-1.353V617.6a1.352,1.352,0,0,1,2.7,0v1.891A1.357,1.357,0,0,1,353.242,620.839Z" transform="translate(-351.89 -616.244)" fill="#fff"/>
      </g>
    </g>
    <g id="Group_134" data-name="Group 134" transform="translate(5.546)">
      <g id="Group_133" data-name="Group 133">
        <path id="Path_132" data-name="Path 132" d="M345.484,620.839a1.276,1.276,0,0,1-1.352-1.353V617.6a1.352,1.352,0,0,1,2.7,0v1.891A1.454,1.454,0,0,1,345.484,620.839Z" transform="translate(-344.132 -616.244)" fill="#fff"/>
      </g>
    </g>
    <g id="Group_136" data-name="Group 136">
      <g id="Group_135" data-name="Group 135">
        <path id="Path_133" data-name="Path 133" d="M337.529,620.839a1.276,1.276,0,0,1-1.352-1.353V617.6a1.352,1.352,0,0,1,2.7,0v1.891A1.354,1.354,0,0,1,337.529,620.839Z" transform="translate(-336.177 -616.244)" fill="#fff"/>
      </g>
    </g>
    <g id="Group_138" data-name="Group 138" transform="translate(10.954 7.567)">
      <g id="Group_137" data-name="Group 137">
        <path id="Path_134" data-name="Path 134" d="M353.242,631.693a1.275,1.275,0,0,1-1.352-1.352v-1.891a1.352,1.352,0,1,1,2.7,0v1.891A1.278,1.278,0,0,1,353.242,631.693Z" transform="translate(-351.89 -627.098)" fill="#fff"/>
      </g>
    </g>
    <g id="Group_140" data-name="Group 140" transform="translate(5.546 7.567)">
      <g id="Group_139" data-name="Group 139">
        <path id="Path_135" data-name="Path 135" d="M345.484,631.693a1.275,1.275,0,0,1-1.352-1.352v-1.891a1.352,1.352,0,1,1,2.7,0v1.891A1.354,1.354,0,0,1,345.484,631.693Z" transform="translate(-344.132 -627.098)" fill="#fff"/>
      </g>
    </g>
    <g id="Group_142" data-name="Group 142" transform="translate(0 7.567)">
      <g id="Group_141" data-name="Group 141">
        <path id="Path_136" data-name="Path 136" d="M337.529,631.693a1.275,1.275,0,0,1-1.352-1.352v-1.891a1.352,1.352,0,1,1,2.7,0v1.891A1.275,1.275,0,0,1,337.529,631.693Z" transform="translate(-336.177 -627.098)" fill="#fff"/>
      </g>
    </g>
    <g id="Group_144" data-name="Group 144" transform="translate(10.954 15.279)">
      <g id="Group_143" data-name="Group 143">
        <path id="Path_137" data-name="Path 137" d="M353.242,642.755a1.275,1.275,0,0,1-1.352-1.352v-1.89a1.352,1.352,0,1,1,2.7,0v1.89A1.357,1.357,0,0,1,353.242,642.755Z" transform="translate(-351.89 -638.16)" fill="#fff"/>
      </g>
    </g>
    <g id="Group_146" data-name="Group 146" transform="translate(5.546 15.279)">
      <g id="Group_145" data-name="Group 145">
        <path id="Path_138" data-name="Path 138" d="M345.484,642.755a1.276,1.276,0,0,1-1.352-1.352v-1.89a1.352,1.352,0,1,1,2.7,0v1.89A1.454,1.454,0,0,1,345.484,642.755Z" transform="translate(-344.132 -638.16)" fill="#fff"/>
      </g>
    </g>
    <g id="Group_148" data-name="Group 148" transform="translate(10.954 22.846)">
      <g id="Group_147" data-name="Group 147">
        <path id="Path_139" data-name="Path 139" d="M353.242,653.609a1.275,1.275,0,0,1-1.352-1.352v-1.891a1.352,1.352,0,1,1,2.7,0v1.891A1.278,1.278,0,0,1,353.242,653.609Z" transform="translate(-351.89 -649.015)" fill="#fff"/>
      </g>
    </g>
    <g id="Group_150" data-name="Group 150" transform="translate(5.546 22.846)">
      <g id="Group_149" data-name="Group 149">
        <path id="Path_140" data-name="Path 140" d="M345.484,653.609a1.275,1.275,0,0,1-1.352-1.352v-1.891a1.352,1.352,0,0,1,2.7,0v1.891A1.354,1.354,0,0,1,345.484,653.609Z" transform="translate(-344.132 -649.015)" fill="#fff"/>
      </g>
    </g>
  </g>
  <g id="Group_164" data-name="Group 164" transform="translate(22.049 69.857)">
    <g id="Group_153" data-name="Group 153">
      <g id="Group_152" data-name="Group 152">
        <path id="Path_141" data-name="Path 141" d="M302.425,685.35A1.275,1.275,0,0,0,303.777,684v-1.891a1.352,1.352,0,0,0-2.7,0V684A1.357,1.357,0,0,0,302.425,685.35Z" transform="translate(-301.073 -680.756)" fill="#fff"/>
      </g>
    </g>
    <g id="Group_155" data-name="Group 155" transform="translate(5.408)">
      <g id="Group_154" data-name="Group 154">
        <path id="Path_142" data-name="Path 142" d="M310.182,685.35A1.275,1.275,0,0,0,311.534,684v-1.891a1.352,1.352,0,0,0-2.7,0V684A1.454,1.454,0,0,0,310.182,685.35Z" transform="translate(-308.83 -680.756)" fill="#fff"/>
      </g>
    </g>
    <g id="Group_157" data-name="Group 157" transform="translate(0 7.567)">
      <g id="Group_156" data-name="Group 156">
        <path id="Path_143" data-name="Path 143" d="M302.425,696.2a1.275,1.275,0,0,0,1.352-1.352v-1.891a1.352,1.352,0,0,0-2.7,0v1.891A1.277,1.277,0,0,0,302.425,696.2Z" transform="translate(-301.073 -691.61)" fill="#fff"/>
      </g>
    </g>
    <g id="Group_159" data-name="Group 159" transform="translate(5.408 7.567)">
      <g id="Group_158" data-name="Group 158">
        <path id="Path_144" data-name="Path 144" d="M310.182,696.2a1.275,1.275,0,0,0,1.352-1.352v-1.891a1.352,1.352,0,0,0-2.7,0v1.891A1.353,1.353,0,0,0,310.182,696.2Z" transform="translate(-308.83 -691.61)" fill="#fff"/>
      </g>
    </g>
    <g id="Group_161" data-name="Group 161" transform="translate(0 15.279)">
      <g id="Group_160" data-name="Group 160">
        <path id="Path_145" data-name="Path 145" d="M302.425,707.266a1.275,1.275,0,0,0,1.352-1.352v-1.891a1.352,1.352,0,0,0-2.7,0v1.891A1.356,1.356,0,0,0,302.425,707.266Z" transform="translate(-301.073 -702.672)" fill="#fff"/>
      </g>
    </g>
    <g id="Group_163" data-name="Group 163" transform="translate(5.408 15.279)">
      <g id="Group_162" data-name="Group 162">
        <path id="Path_146" data-name="Path 146" d="M310.182,707.266a1.275,1.275,0,0,0,1.352-1.352v-1.891a1.352,1.352,0,0,0-2.7,0v1.891A1.454,1.454,0,0,0,310.182,707.266Z" transform="translate(-308.83 -702.672)" fill="#fff"/>
      </g>
    </g>
  </g>
  <g id="Group_177" data-name="Group 177" transform="translate(52.068 69.857)">
    <g id="Group_166" data-name="Group 166" transform="translate(5.409)">
      <g id="Group_165" data-name="Group 165">
        <path id="Path_147" data-name="Path 147" d="M353.242,685.35A1.275,1.275,0,0,1,351.89,684v-1.891a1.352,1.352,0,1,1,2.7,0V684A1.357,1.357,0,0,1,353.242,685.35Z" transform="translate(-351.89 -680.756)" fill="#fff"/>
      </g>
    </g>
    <g id="Group_168" data-name="Group 168">
      <g id="Group_167" data-name="Group 167">
        <path id="Path_148" data-name="Path 148" d="M345.484,685.35A1.275,1.275,0,0,1,344.132,684v-1.891a1.352,1.352,0,0,1,2.7,0V684A1.454,1.454,0,0,1,345.484,685.35Z" transform="translate(-344.132 -680.756)" fill="#fff"/>
      </g>
    </g>
    <g id="Group_170" data-name="Group 170" transform="translate(5.409 7.567)">
      <g id="Group_169" data-name="Group 169">
        <path id="Path_149" data-name="Path 149" d="M353.242,696.2a1.275,1.275,0,0,1-1.352-1.352v-1.891a1.352,1.352,0,1,1,2.7,0v1.891A1.277,1.277,0,0,1,353.242,696.2Z" transform="translate(-351.89 -691.61)" fill="#fff"/>
      </g>
    </g>
    <g id="Group_172" data-name="Group 172" transform="translate(0 7.567)">
      <g id="Group_171" data-name="Group 171">
        <path id="Path_150" data-name="Path 150" d="M345.484,696.2a1.275,1.275,0,0,1-1.352-1.352v-1.891a1.352,1.352,0,0,1,2.7,0v1.891A1.353,1.353,0,0,1,345.484,696.2Z" transform="translate(-344.132 -691.61)" fill="#fff"/>
      </g>
    </g>
    <g id="Group_174" data-name="Group 174" transform="translate(5.409 15.279)">
      <g id="Group_173" data-name="Group 173">
        <path id="Path_151" data-name="Path 151" d="M353.242,707.266a1.275,1.275,0,0,1-1.352-1.352v-1.891a1.352,1.352,0,1,1,2.7,0v1.891A1.356,1.356,0,0,1,353.242,707.266Z" transform="translate(-351.89 -702.672)" fill="#fff"/>
      </g>
    </g>
    <g id="Group_176" data-name="Group 176" transform="translate(0 15.279)">
      <g id="Group_175" data-name="Group 175">
        <path id="Path_152" data-name="Path 152" d="M345.484,707.266a1.275,1.275,0,0,1-1.352-1.352v-1.891a1.352,1.352,0,0,1,2.7,0v1.891A1.454,1.454,0,0,1,345.484,707.266Z" transform="translate(-344.132 -702.672)" fill="#fff"/>
      </g>
    </g>
  </g>
  <g id="Group_202" data-name="Group 202" transform="translate(85.352 16.967)">
    <g id="Group_179" data-name="Group 179">
      <g id="Group_178" data-name="Group 178">
        <path id="Path_153" data-name="Path 153" d="M393.227,610.03a1.276,1.276,0,0,0,1.352-1.352v-2.434a1.352,1.352,0,0,0-2.7,0v2.434A1.454,1.454,0,0,0,393.227,610.03Z" transform="translate(-391.875 -604.891)" fill="#fff"/>
      </g>
    </g>
    <g id="Group_181" data-name="Group 181" transform="translate(5.539)">
      <g id="Group_180" data-name="Group 180">
        <path id="Path_154" data-name="Path 154" d="M401.172,610.03a1.275,1.275,0,0,0,1.352-1.352v-2.434a1.352,1.352,0,0,0-2.7,0v2.434A1.358,1.358,0,0,0,401.172,610.03Z" transform="translate(-399.82 -604.891)" fill="#fff"/>
      </g>
    </g>
    <g id="Group_183" data-name="Group 183" transform="translate(10.947)">
      <g id="Group_182" data-name="Group 182">
        <path id="Path_155" data-name="Path 155" d="M408.93,610.03a1.275,1.275,0,0,0,1.352-1.352v-2.434a1.352,1.352,0,1,0-2.7,0v2.434A1.454,1.454,0,0,0,408.93,610.03Z" transform="translate(-407.578 -604.891)" fill="#fff"/>
      </g>
    </g>
    <g id="Group_185" data-name="Group 185" transform="translate(0 10.14)">
      <g id="Group_184" data-name="Group 184">
        <path id="Path_156" data-name="Path 156" d="M393.227,624.575a1.276,1.276,0,0,0,1.352-1.352v-2.435a1.352,1.352,0,0,0-2.7,0v2.435A1.454,1.454,0,0,0,393.227,624.575Z" transform="translate(-391.875 -619.436)" fill="#fff"/>
      </g>
    </g>
    <g id="Group_187" data-name="Group 187" transform="translate(5.539 10.14)">
      <g id="Group_186" data-name="Group 186">
        <path id="Path_157" data-name="Path 157" d="M401.172,624.575a1.275,1.275,0,0,0,1.352-1.352v-2.435a1.352,1.352,0,0,0-2.7,0v2.435A1.358,1.358,0,0,0,401.172,624.575Z" transform="translate(-399.82 -619.436)" fill="#fff"/>
      </g>
    </g>
    <g id="Group_189" data-name="Group 189" transform="translate(10.947 10.14)">
      <g id="Group_188" data-name="Group 188">
        <path id="Path_158" data-name="Path 158" d="M408.93,624.575a1.275,1.275,0,0,0,1.352-1.352v-2.435a1.352,1.352,0,0,0-2.7,0v2.435A1.454,1.454,0,0,0,408.93,624.575Z" transform="translate(-407.578 -619.436)" fill="#fff"/>
      </g>
    </g>
    <g id="Group_191" data-name="Group 191" transform="translate(0 20.28)">
      <g id="Group_190" data-name="Group 190">
        <path id="Path_159" data-name="Path 159" d="M393.227,639.12a1.276,1.276,0,0,0,1.352-1.353v-2.434a1.352,1.352,0,0,0-2.7,0v2.434A1.354,1.354,0,0,0,393.227,639.12Z" transform="translate(-391.875 -633.981)" fill="#fff"/>
      </g>
    </g>
    <g id="Group_193" data-name="Group 193" transform="translate(5.539 20.28)">
      <g id="Group_192" data-name="Group 192">
        <path id="Path_160" data-name="Path 160" d="M401.172,639.12a1.275,1.275,0,0,0,1.352-1.353v-2.434a1.352,1.352,0,0,0-2.7,0v2.434A1.279,1.279,0,0,0,401.172,639.12Z" transform="translate(-399.82 -633.981)" fill="#fff"/>
      </g>
    </g>
    <g id="Group_195" data-name="Group 195" transform="translate(10.947 20.28)">
      <g id="Group_194" data-name="Group 194">
        <path id="Path_161" data-name="Path 161" d="M408.93,639.12a1.275,1.275,0,0,0,1.352-1.353v-2.434a1.352,1.352,0,0,0-2.7,0v2.434A1.353,1.353,0,0,0,408.93,639.12Z" transform="translate(-407.578 -633.981)" fill="#fff"/>
      </g>
    </g>
    <g id="Group_197" data-name="Group 197" transform="translate(0 30.42)">
      <g id="Group_196" data-name="Group 196">
        <path id="Path_162" data-name="Path 162" d="M393.227,653.664a1.275,1.275,0,0,0,1.352-1.352v-2.434a1.352,1.352,0,1,0-2.7,0v2.434A1.353,1.353,0,0,0,393.227,653.664Z" transform="translate(-391.875 -648.525)" fill="#fff"/>
      </g>
    </g>
    <g id="Group_199" data-name="Group 199" transform="translate(5.539 30.42)">
      <g id="Group_198" data-name="Group 198">
        <path id="Path_163" data-name="Path 163" d="M401.172,653.664a1.275,1.275,0,0,0,1.352-1.352v-2.434a1.352,1.352,0,1,0-2.7,0v2.434A1.278,1.278,0,0,0,401.172,653.664Z" transform="translate(-399.82 -648.525)" fill="#fff"/>
      </g>
    </g>
    <g id="Group_201" data-name="Group 201" transform="translate(10.947 30.42)">
      <g id="Group_200" data-name="Group 200">
        <path id="Path_164" data-name="Path 164" d="M408.93,653.664a1.274,1.274,0,0,0,1.352-1.352v-2.434a1.352,1.352,0,1,0-2.7,0v2.434A1.353,1.353,0,0,0,408.93,653.664Z" transform="translate(-407.578 -648.525)" fill="#fff"/>
      </g>
    </g>
  </g>
  <g id="Group_221" data-name="Group 221" transform="translate(85.352 56.29)">
    <g id="Group_204" data-name="Group 204">
      <g id="Group_203" data-name="Group 203">
        <path id="Path_165" data-name="Path 165" d="M393.227,666.435a1.275,1.275,0,0,0,1.352-1.352v-2.434a1.352,1.352,0,1,0-2.7,0v2.434A1.454,1.454,0,0,0,393.227,666.435Z" transform="translate(-391.875 -661.296)" fill="#fff"/>
      </g>
    </g>
    <g id="Group_206" data-name="Group 206" transform="translate(5.539)">
      <g id="Group_205" data-name="Group 205">
        <path id="Path_166" data-name="Path 166" d="M401.172,666.435a1.275,1.275,0,0,0,1.352-1.352v-2.434a1.352,1.352,0,1,0-2.7,0v2.434A1.357,1.357,0,0,0,401.172,666.435Z" transform="translate(-399.82 -661.296)" fill="#fff"/>
      </g>
    </g>
    <g id="Group_208" data-name="Group 208" transform="translate(10.947)">
      <g id="Group_207" data-name="Group 207">
        <path id="Path_167" data-name="Path 167" d="M408.93,666.435a1.275,1.275,0,0,0,1.352-1.352v-2.434a1.352,1.352,0,1,0-2.7,0v2.434A1.453,1.453,0,0,0,408.93,666.435Z" transform="translate(-407.578 -661.296)" fill="#fff"/>
      </g>
    </g>
    <g id="Group_210" data-name="Group 210" transform="translate(0 10.14)">
      <g id="Group_209" data-name="Group 209">
        <path id="Path_168" data-name="Path 168" d="M393.227,680.98a1.275,1.275,0,0,0,1.352-1.352v-2.434a1.352,1.352,0,1,0-2.7,0v2.434A1.454,1.454,0,0,0,393.227,680.98Z" transform="translate(-391.875 -675.841)" fill="#fff"/>
      </g>
    </g>
    <g id="Group_212" data-name="Group 212" transform="translate(5.539 10.14)">
      <g id="Group_211" data-name="Group 211">
        <path id="Path_169" data-name="Path 169" d="M401.172,680.98a1.275,1.275,0,0,0,1.352-1.352v-2.434a1.352,1.352,0,1,0-2.7,0v2.434A1.357,1.357,0,0,0,401.172,680.98Z" transform="translate(-399.82 -675.841)" fill="#fff"/>
      </g>
    </g>
    <g id="Group_214" data-name="Group 214" transform="translate(10.947 10.14)">
      <g id="Group_213" data-name="Group 213">
        <path id="Path_170" data-name="Path 170" d="M408.93,680.98a1.275,1.275,0,0,0,1.352-1.352v-2.434a1.352,1.352,0,1,0-2.7,0v2.434A1.453,1.453,0,0,0,408.93,680.98Z" transform="translate(-407.578 -675.841)" fill="#fff"/>
      </g>
    </g>
    <g id="Group_216" data-name="Group 216" transform="translate(0 20.28)">
      <g id="Group_215" data-name="Group 215">
        <path id="Path_171" data-name="Path 171" d="M393.227,695.525a1.275,1.275,0,0,0,1.352-1.352v-2.434a1.352,1.352,0,1,0-2.7,0v2.434A1.354,1.354,0,0,0,393.227,695.525Z" transform="translate(-391.875 -690.386)" fill="#fff"/>
      </g>
    </g>
    <g id="Group_218" data-name="Group 218" transform="translate(5.539 20.28)">
      <g id="Group_217" data-name="Group 217">
        <path id="Path_172" data-name="Path 172" d="M401.172,695.525a1.275,1.275,0,0,0,1.352-1.352v-2.434a1.352,1.352,0,1,0-2.7,0v2.434A1.278,1.278,0,0,0,401.172,695.525Z" transform="translate(-399.82 -690.386)" fill="#fff"/>
      </g>
    </g>
    <g id="Group_220" data-name="Group 220" transform="translate(10.947 20.28)">
      <g id="Group_219" data-name="Group 219">
        <path id="Path_173" data-name="Path 173" d="M408.93,695.525a1.275,1.275,0,0,0,1.352-1.352v-2.434a1.352,1.352,0,1,0-2.7,0v2.434A1.353,1.353,0,0,0,408.93,695.525Z" transform="translate(-407.578 -690.386)" fill="#fff"/>
      </g>
    </g>
  </g>
  <g id="Group_223" data-name="Group 223" transform="translate(76.368 8.943)">
    <g id="Group_222" data-name="Group 222">
      <path id="Path_174" data-name="Path 174" d="M410.607,693.418l-3.844-.079h-7.774v-8.731a5.028,5.028,0,0,0-10.056,0v8.731h-3.286l-6.658.068V593.381h31.618ZM381.08,595.472v95.821l5.761-.046v-6.64a7.119,7.119,0,0,1,14.239,0v6.64h5.7l1.731.036v-95.81Z" transform="translate(-378.989 -593.381)" fill="#fff"/>
    </g>
  </g>
  <g id="Group_225" data-name="Group 225" transform="translate(118.099 98.821)">
    <g id="Group_224" data-name="Group 224">
      <rect id="Rectangle_30" data-name="Rectangle 30" width="2.091" height="9.091" fill="#fff"/>
    </g>
  </g>
  <g id="Ellipse_5-5" data-name="Ellipse 5" transform="translate(112.718 87.148)">
    <g id="Group_227" data-name="Group 227">
      <g id="Group_226" data-name="Group 226">
        <path id="Path_175" data-name="Path 175" d="M437.556,718.411a6.426,6.426,0,1,1,6.426-6.426A6.433,6.433,0,0,1,437.556,718.411Zm0-10.761a4.335,4.335,0,1,0,4.334,4.334A4.339,4.339,0,0,0,437.556,707.65Z" transform="translate(-431.13 -705.559)" fill="#fff"/>
      </g>
    </g>
  </g>
  <g id="Group_229" data-name="Group 229" transform="translate(5.381 98.821)">
    <g id="Group_228" data-name="Group 228">
      <rect id="Rectangle_31" data-name="Rectangle 31" width="2.091" height="9.091" fill="#fff"/>
    </g>
  </g>
  <g id="Ellipse_5-6" data-name="Ellipse 5" transform="translate(0 87.148)">
    <g id="Group_231" data-name="Group 231">
      <g id="Group_230" data-name="Group 230">
        <path id="Path_176" data-name="Path 176" d="M275.872,718.411a6.426,6.426,0,1,1,6.426-6.426A6.434,6.434,0,0,1,275.872,718.411Zm0-10.761a4.335,4.335,0,1,0,4.334,4.334A4.339,4.339,0,0,0,275.872,707.65Z" transform="translate(-269.446 -705.559)" fill="#fff"/>
      </g>
    </g>
  </g>
  <g id="Ellipse_5-7" data-name="Ellipse 5" transform="translate(114.249 79.18)">
    <g id="Group_233" data-name="Group 233">
      <g id="Group_232" data-name="Group 232">
        <path id="Path_177" data-name="Path 177" d="M438.221,703.919a4.9,4.9,0,1,1,4.895-4.9A4.9,4.9,0,0,1,438.221,703.919Zm0-7.7a2.8,2.8,0,1,0,2.8,2.8A2.807,2.807,0,0,0,438.221,696.221Z" transform="translate(-433.326 -694.129)" fill="#fff"/>
      </g>
    </g>
  </g>
</svg>
