<svg xmlns="http://www.w3.org/2000/svg" width="87.688" height="75.94" viewBox="0 0 87.688 75.94">
  <g id="Group_363" data-name="Group 363" transform="translate(-3976 -7279.604)">
    <g id="Group_360" data-name="Group 360" transform="translate(3976 7279.604)">
      <g id="Group_359" data-name="Group 359" transform="translate(0 0)">
        <g id="Group_354" data-name="Group 354" transform="translate(25.033 8.89)">
          <g id="Group_348" data-name="Group 348" transform="translate(17.63 0)">
            <rect id="Rectangle_62" data-name="Rectangle 62" width="1.851" height="10.187" transform="translate(0 0.007) rotate(-0.203)" fill="#fff"/>
          </g>
          <g id="Group_349" data-name="Group 349" transform="translate(17.63 49.265)">
            <rect id="Rectangle_63" data-name="Rectangle 63" width="1.851" height="10.187" transform="translate(0 0.007) rotate(-0.203)" fill="#fff"/>
          </g>
          <g id="Path_16" data-name="Path 16" transform="translate(6.585 31.78)">
            <rect id="Rectangle_64" data-name="Rectangle 64" width="1.851" height="13.299" transform="translate(0 1.274) rotate(-43.487)" fill="#fff"/>
          </g>
          <g id="Path_16-2" data-name="Path 16" transform="translate(8.846 28.722)">
            <rect id="Rectangle_65" data-name="Rectangle 65" width="19.93" height="1.851" fill="#fff"/>
          </g>
          <g id="Path_16-3" data-name="Path 16" transform="translate(20.516 16.898)">
            <rect id="Rectangle_66" data-name="Rectangle 66" width="1.852" height="12.747" transform="matrix(0.726, -0.688, 0.688, 0.726, 0, 1.274)" fill="#fff"/>
          </g>
          <g id="Ellipse_5" data-name="Ellipse 5" transform="translate(13.286 9.354)">
            <g id="Group_350" data-name="Group 350">
              <path id="Path_207" data-name="Path 207" d="M219.443,656.246a5.269,5.269,0,1,1,5.269-5.269A5.276,5.276,0,0,1,219.443,656.246Zm0-8.688a3.418,3.418,0,1,0,3.418,3.418A3.421,3.421,0,0,0,219.443,647.558Z" transform="translate(-214.174 -645.707)" fill="#fff"/>
            </g>
          </g>
          <g id="Ellipse_5-2" data-name="Ellipse 5" transform="translate(13.286 39.655)">
            <g id="Group_351" data-name="Group 351">
              <path id="Path_208" data-name="Path 208" d="M219.443,705.348a5.269,5.269,0,1,1,5.269-5.269A5.276,5.276,0,0,1,219.443,705.348Zm0-8.688a3.418,3.418,0,1,0,3.418,3.418A3.421,3.421,0,0,0,219.443,696.66Z" transform="translate(-214.174 -694.809)" fill="#fff"/>
            </g>
          </g>
          <g id="Ellipse_6" data-name="Ellipse 6" transform="translate(27.084 24.174)">
            <g id="Group_352" data-name="Group 352">
              <path id="Path_209" data-name="Path 209" d="M241.8,680.261a5.269,5.269,0,1,1,5.269-5.269A5.276,5.276,0,0,1,241.8,680.261Zm0-8.687a3.418,3.418,0,1,0,3.418,3.418A3.421,3.421,0,0,0,241.8,671.574Z" transform="translate(-236.533 -669.723)" fill="#fff"/>
            </g>
          </g>
          <g id="Ellipse_7" data-name="Ellipse 7" transform="translate(0 24.174)">
            <g id="Group_353" data-name="Group 353">
              <path id="Path_210" data-name="Path 210" d="M197.913,680.261a5.269,5.269,0,1,1,5.27-5.269A5.275,5.275,0,0,1,197.913,680.261Zm0-8.687a3.418,3.418,0,1,0,3.418,3.418A3.421,3.421,0,0,0,197.913,671.574Z" transform="translate(-192.644 -669.723)" fill="#fff"/>
            </g>
          </g>
        </g>
        <g id="Group_355" data-name="Group 355" transform="translate(0 29.738)">
          <path id="Path_211" data-name="Path 211" d="M239.767,710.535H152.079v-46.2h1.851v44.351h83.985V664.333h1.851Z" transform="translate(-152.079 -664.333)" fill="#fff"/>
        </g>
        <g id="Group_356" data-name="Group 356" transform="translate(7.188 32.746)">
          <path id="Path_212" data-name="Path 212" d="M228.943,705.319H171.825a8.106,8.106,0,0,1-8.1-8.1V669.207h1.851v28.015a6.253,6.253,0,0,0,6.246,6.246h57.118a6.253,6.253,0,0,0,6.246-6.246V669.207h1.851v28.015A8.106,8.106,0,0,1,228.943,705.319Z" transform="translate(-163.728 -669.207)" fill="#fff"/>
        </g>
        <g id="Group_357" data-name="Group 357" transform="translate(28.787 0)">
          <path id="Path_213" data-name="Path 213" d="M228.842,624.383h-1.851v-2.576A3.816,3.816,0,0,0,223.178,618H204.391a3.815,3.815,0,0,0-3.812,3.811v2.576h-1.851v-2.576a5.669,5.669,0,0,1,5.663-5.663h18.787a5.67,5.67,0,0,1,5.664,5.663Z" transform="translate(-198.728 -616.144)" fill="#fff"/>
        </g>
        <g id="Group_358" data-name="Group 358" transform="translate(0 7.35)">
          <path id="Path_214" data-name="Path 214" d="M177.762,659.921l-25.683-7.995V628.055h87.688v23.872l-25.68,7.995-.551-1.768,24.379-7.59V629.906H153.931v20.657l24.382,7.59Z" transform="translate(-152.079 -628.055)" fill="#fff"/>
        </g>
      </g>
    </g>
  </g>
</svg>
