<svg xmlns="http://www.w3.org/2000/svg" width="118.029" height="96.752" viewBox="0 0 118.029 96.752">
  <g id="Group_289" data-name="Group 289" transform="translate(-596.084 -592.715)">
    <g id="Group_253" data-name="Group 253" transform="translate(607.435 642.935)">
      <rect id="Rectangle_36" data-name="Rectangle 36" width="23.95" height="2.292" transform="translate(0 0)" fill="#1a2531"/>
    </g>
    <g id="Group_254" data-name="Group 254" transform="translate(677.742 642.936)">
      <rect id="Rectangle_37" data-name="Rectangle 37" width="23.865" height="2.292" transform="translate(0 0.124) rotate(-0.298)" fill="#1a2531"/>
    </g>
    <g id="Path_16" data-name="Path 16" transform="translate(657.051 646.032)">
      <rect id="Rectangle_38" data-name="Rectangle 38" width="16.462" height="2.291" transform="translate(0 11.331) rotate(-43.496)" fill="#1a2531"/>
    </g>
    <g id="Path_16-2" data-name="Path 16" transform="translate(653.266 631.556)">
      <rect id="Rectangle_39" data-name="Rectangle 39" width="2.292" height="24.67" transform="translate(0 0)" fill="#1a2531"/>
    </g>
    <g id="Path_16-3" data-name="Path 16" transform="translate(638.63 629.263)">
      <rect id="Rectangle_40" data-name="Rectangle 40" width="15.778" height="2.292" transform="translate(0 10.855) rotate(-43.47)" fill="#1a2531"/>
    </g>
    <g id="Ellipse_5" data-name="Ellipse 5" transform="translate(629.291 637.684)">
      <g id="Group_255" data-name="Group 255" transform="translate(0 0)">
        <path id="Path_190" data-name="Path 190" d="M646.079,664.631a6.523,6.523,0,1,1,6.523-6.523A6.53,6.53,0,0,1,646.079,664.631Zm0-10.754a4.231,4.231,0,1,0,4.231,4.231A4.235,4.235,0,0,0,646.079,653.878Z" transform="translate(-639.556 -651.586)" fill="#1a2531"/>
      </g>
    </g>
    <g id="Ellipse_5-2" data-name="Ellipse 5" transform="translate(596.084 637.684)">
      <g id="Group_256" data-name="Group 256" transform="translate(0 0)">
        <path id="Path_191" data-name="Path 191" d="M602.607,664.631a6.523,6.523,0,1,1,6.523-6.523A6.531,6.531,0,0,1,602.607,664.631Zm0-10.754a4.231,4.231,0,1,0,4.231,4.231A4.235,4.235,0,0,0,602.607,653.878Z" transform="translate(-596.084 -651.586)" fill="#1a2531"/>
      </g>
    </g>
    <g id="Ellipse_5-3" data-name="Ellipse 5" transform="translate(629.291 676.421)">
      <g id="Group_257" data-name="Group 257" transform="translate(0)">
        <path id="Path_192" data-name="Path 192" d="M646.079,715.342a6.523,6.523,0,1,1,6.523-6.523A6.53,6.53,0,0,1,646.079,715.342Zm0-10.754a4.231,4.231,0,1,0,4.231,4.231A4.235,4.235,0,0,0,646.079,704.589Z" transform="translate(-639.556 -702.297)" fill="#1a2531"/>
      </g>
    </g>
    <g id="Ellipse_5-4" data-name="Ellipse 5" transform="translate(629.291 592.715)">
      <g id="Group_258" data-name="Group 258" transform="translate(0)">
        <path id="Path_193" data-name="Path 193" d="M646.079,605.76a6.522,6.522,0,1,1,6.523-6.523A6.53,6.53,0,0,1,646.079,605.76Zm0-10.753a4.231,4.231,0,1,0,4.231,4.23A4.235,4.235,0,0,0,646.079,595.007Z" transform="translate(-639.556 -592.715)" fill="#1a2531"/>
      </g>
    </g>
    <g id="Ellipse_5-5" data-name="Ellipse 5" transform="translate(666.797 676.421)">
      <g id="Group_259" data-name="Group 259">
        <path id="Path_194" data-name="Path 194" d="M695.18,715.342a6.523,6.523,0,1,1,6.523-6.523A6.53,6.53,0,0,1,695.18,715.342Zm0-10.754a4.231,4.231,0,1,0,4.231,4.231A4.236,4.236,0,0,0,695.18,704.589Z" transform="translate(-688.657 -702.297)" fill="#1a2531"/>
      </g>
    </g>
    <g id="Ellipse_5-6" data-name="Ellipse 5" transform="translate(666.797 592.715)">
      <g id="Group_260" data-name="Group 260">
        <path id="Path_195" data-name="Path 195" d="M695.18,605.76a6.522,6.522,0,1,1,6.523-6.523A6.53,6.53,0,0,1,695.18,605.76Zm0-10.753a4.231,4.231,0,1,0,4.231,4.23A4.235,4.235,0,0,0,695.18,595.007Z" transform="translate(-688.657 -592.715)" fill="#1a2531"/>
      </g>
    </g>
    <g id="Ellipse_5-7" data-name="Ellipse 5" transform="translate(666.797 637.684)">
      <g id="Group_261" data-name="Group 261" transform="translate(0 0)">
        <path id="Path_196" data-name="Path 196" d="M695.18,664.631a6.523,6.523,0,1,1,6.523-6.523A6.53,6.53,0,0,1,695.18,664.631Zm0-10.754a4.231,4.231,0,1,0,4.231,4.231A4.236,4.236,0,0,0,695.18,653.878Z" transform="translate(-688.657 -651.586)" fill="#1a2531"/>
      </g>
    </g>
    <g id="Ellipse_5-8" data-name="Ellipse 5" transform="translate(701.068 637.684)">
      <g id="Group_262" data-name="Group 262" transform="translate(0 0)">
        <path id="Path_197" data-name="Path 197" d="M740.045,664.631a6.523,6.523,0,1,1,6.522-6.523A6.531,6.531,0,0,1,740.045,664.631Zm0-10.754a4.231,4.231,0,1,0,4.23,4.231A4.236,4.236,0,0,0,740.045,653.878Z" transform="translate(-733.522 -651.586)" fill="#1a2531"/>
      </g>
    </g>
    <g id="Ellipse_6" data-name="Ellipse 6" transform="translate(647.635 620.606)">
      <g id="Group_263" data-name="Group 263" transform="translate(0 0)">
        <path id="Path_198" data-name="Path 198" d="M670.094,642.273a6.522,6.522,0,1,1,6.522-6.522A6.53,6.53,0,0,1,670.094,642.273Zm0-10.753a4.231,4.231,0,1,0,4.23,4.231A4.236,4.236,0,0,0,670.094,631.52Z" transform="translate(-663.571 -629.228)" fill="#1a2531"/>
      </g>
    </g>
    <g id="Ellipse_7" data-name="Ellipse 7" transform="translate(647.635 654.131)">
      <g id="Group_264" data-name="Group 264" transform="translate(0)">
        <path id="Path_199" data-name="Path 199" d="M670.094,686.161a6.522,6.522,0,1,1,6.522-6.523A6.53,6.53,0,0,1,670.094,686.161Zm0-10.753a4.231,4.231,0,1,0,4.23,4.23A4.236,4.236,0,0,0,670.094,675.409Z" transform="translate(-663.571 -673.117)" fill="#1a2531"/>
      </g>
    </g>
    <g id="Group_265" data-name="Group 265" transform="translate(601.709 602.455)">
      <rect id="Rectangle_41" data-name="Rectangle 41" width="45.71" height="2.291" transform="translate(0 35.656) rotate(-51.264)" fill="#1a2531"/>
    </g>
    <g id="Group_266" data-name="Group 266" transform="translate(601.786 648.784)">
      <rect id="Rectangle_42" data-name="Rectangle 42" width="2.292" height="41.22" transform="translate(0 1.6) rotate(-44.281)" fill="#1a2531"/>
    </g>
    <g id="Group_267" data-name="Group 267" transform="translate(677.052 602.435)">
      <rect id="Rectangle_43" data-name="Rectangle 43" width="2.291" height="46.383" transform="translate(0 1.465) rotate(-39.748)" fill="#1a2531"/>
    </g>
    <g id="Group_268" data-name="Group 268" transform="translate(677.869 648.792)">
      <rect id="Rectangle_44" data-name="Rectangle 44" width="41.871" height="2.292" transform="translate(0 30.308) rotate(-46.371)" fill="#1a2531"/>
    </g>
    <g id="Group_269" data-name="Group 269" transform="translate(634.667 649.584)">
      <rect id="Rectangle_45" data-name="Rectangle 45" width="2.292" height="27.983" fill="#1a2531"/>
    </g>
    <g id="Group_270" data-name="Group 270" transform="translate(634.667 604.614)">
      <rect id="Rectangle_46" data-name="Rectangle 46" width="2.292" height="34.217" transform="translate(0 0)" fill="#1a2531"/>
    </g>
    <g id="Group_271" data-name="Group 271" transform="translate(672.174 604.614)">
      <rect id="Rectangle_47" data-name="Rectangle 47" width="2.292" height="34.217" transform="translate(0 0)" fill="#1a2531"/>
    </g>
    <g id="Group_272" data-name="Group 272" transform="translate(672.174 649.584)">
      <rect id="Rectangle_48" data-name="Rectangle 48" width="2.292" height="27.983" fill="#1a2531"/>
    </g>
    <g id="Group_273" data-name="Group 273" transform="translate(640.044 664.884)">
      <path id="Path_200" data-name="Path 200" d="M681.533,706.4H654.78a1.146,1.146,0,0,1-.91-1.843l12.968-16.913a1.149,1.149,0,0,1,.892-.448,1.252,1.252,0,0,1,.905.422l13.785,16.913a1.146,1.146,0,0,1-.888,1.869ZM657.1,704.107H679.12l-11.346-13.921Z" transform="translate(-653.634 -687.194)" fill="#1a2531"/>
    </g>
    <g id="Group_274" data-name="Group 274" transform="translate(640.044 598.091)">
      <path id="Path_201" data-name="Path 201" d="M667.747,624.56h-.015a1.145,1.145,0,0,1-.977-.574l-12.968-22.515a1.146,1.146,0,0,1,.993-1.718h26.753a1.146,1.146,0,0,1,.978,1.744l-13.785,22.515A1.148,1.148,0,0,1,667.747,624.56Zm-10.985-22.515,11.015,19.126,11.71-19.126Z" transform="translate(-653.633 -599.753)" fill="#1a2531"/>
    </g>
  </g>
</svg>
