<svg xmlns="http://www.w3.org/2000/svg" width="76.563" height="49" viewBox="0 0 76.563 49">
  <path id="Path_2" data-name="Path 2" d="M173.031,284.092a6.533,6.533,0,0,0-6.422,6.614,6.667,6.667,0,0,0,1.21,3.837l-9.364,8.968A6.276,6.276,0,0,0,155.6,302.1V279.313a6.6,6.6,0,1,0-7.64-6.486,6.677,6.677,0,0,0,1.021,3.547l-9.428,9.045a6.215,6.215,0,0,0-3.817-1.327,6.479,6.479,0,0,0-6.3,5.422H116.3V291.9h13.131a6.408,6.408,0,0,0,12.736-1.2,6.741,6.741,0,0,0-1.021-3.547l9.423-9.04a6.3,6.3,0,0,0,2.713,1.21v22.757a6.594,6.594,0,1,0,7.529,6.508,6.648,6.648,0,0,0-.86-3.244l9.535-9.132a6.244,6.244,0,0,0,3.543,1.108,6.484,6.484,0,0,0,6.311-5.422h13.523v-2.392H179.342A6.485,6.485,0,0,0,173.031,284.092ZM135.74,294.928a4.221,4.221,0,1,1,4.1-4.222A4.167,4.167,0,0,1,135.74,294.928Zm14.549-22.1a4.1,4.1,0,1,1,4.1,4.222A4.166,4.166,0,0,1,150.289,272.825Zm4.1,39.983a4.221,4.221,0,1,1,4.1-4.217A4.163,4.163,0,0,1,154.388,312.808Zm18.642-17.88a4.221,4.221,0,1,1,4.106-4.222A4.167,4.167,0,0,1,173.031,294.928Z" transform="translate(-116.302 -266.206)" fill="#fff"/>
</svg>
