<svg xmlns="http://www.w3.org/2000/svg" width="98.509" height="75.824" viewBox="0 0 98.509 75.824">
  <g id="Group_565" data-name="Group 565" transform="translate(-667.224 -580.553)">
    <g id="Group_388" data-name="Group 388" transform="translate(695.452 638.381)">
      <g id="Group_387" data-name="Group 387">
        <rect id="Rectangle_72" data-name="Rectangle 72" width="1.455" height="8.006" transform="translate(0 0.005) rotate(-0.203)" fill="#fff"/>
      </g>
    </g>
    <g id="Path_16" data-name="Path 16" transform="translate(686.771 625.24)">
      <g id="Group_389" data-name="Group 389" transform="translate(0 0)">
        <rect id="Rectangle_73" data-name="Rectangle 73" width="1.455" height="10.453" transform="translate(0 1.001) rotate(-43.487)" fill="#fff"/>
      </g>
    </g>
    <g id="Path_16-2" data-name="Path 16" transform="translate(688.548 622.836)">
      <g id="Group_390" data-name="Group 390" transform="translate(0)">
        <rect id="Rectangle_74" data-name="Rectangle 74" width="15.665" height="1.455" fill="#fff"/>
      </g>
    </g>
    <g id="Path_16-3" data-name="Path 16" transform="translate(697.72 613.542)">
      <g id="Group_391" data-name="Group 391" transform="translate(0)">
        <rect id="Rectangle_75" data-name="Rectangle 75" width="1.456" height="10.019" transform="matrix(0.726, -0.688, 0.688, 0.726, 0, 1.001)" fill="#fff"/>
      </g>
    </g>
    <g id="Ellipse_5" data-name="Ellipse 5" transform="translate(692.038 607.613)">
      <g id="Group_393" data-name="Group 393" transform="translate(0 0)">
        <g id="Group_392" data-name="Group 392">
          <path id="Path_219" data-name="Path 219" d="M722.524,644.624a4.142,4.142,0,1,1,4.142-4.141A4.146,4.146,0,0,1,722.524,644.624Zm0-6.828a2.686,2.686,0,1,0,2.687,2.687A2.689,2.689,0,0,0,722.524,637.8Z" transform="translate(-718.382 -636.341)" fill="#fff"/>
        </g>
      </g>
    </g>
    <g id="Ellipse_5-2" data-name="Ellipse 5" transform="translate(692.038 631.429)">
      <g id="Group_395" data-name="Group 395" transform="translate(0)">
        <g id="Group_394" data-name="Group 394">
          <path id="Path_220" data-name="Path 220" d="M722.524,693.726a4.142,4.142,0,1,1,4.142-4.142A4.147,4.147,0,0,1,722.524,693.726Zm0-6.828a2.687,2.687,0,1,0,2.687,2.687A2.69,2.69,0,0,0,722.524,686.9Z" transform="translate(-718.382 -685.442)" fill="#fff"/>
        </g>
      </g>
    </g>
    <g id="Ellipse_6" data-name="Ellipse 6" transform="translate(702.883 619.261)">
      <g id="Group_397" data-name="Group 397">
        <g id="Group_396" data-name="Group 396">
          <path id="Path_221" data-name="Path 221" d="M744.882,668.639a4.142,4.142,0,1,1,4.142-4.142A4.146,4.146,0,0,1,744.882,668.639Zm0-6.829a2.687,2.687,0,1,0,2.687,2.687A2.69,2.69,0,0,0,744.882,661.81Z" transform="translate(-740.741 -660.355)" fill="#fff"/>
        </g>
      </g>
    </g>
    <g id="Ellipse_7" data-name="Ellipse 7" transform="translate(681.595 619.261)">
      <g id="Group_399" data-name="Group 399" transform="translate(0)">
        <g id="Group_398" data-name="Group 398">
          <path id="Path_222" data-name="Path 222" d="M700.993,668.639a4.142,4.142,0,1,1,4.142-4.142A4.146,4.146,0,0,1,700.993,668.639Zm0-6.829a2.687,2.687,0,1,0,2.687,2.687A2.69,2.69,0,0,0,700.993,661.81Z" transform="translate(-696.852 -660.355)" fill="#fff"/>
        </g>
      </g>
    </g>
    <g id="Ellipse_5-3" data-name="Ellipse 5" transform="translate(682.334 585.431)">
      <g id="Group_401" data-name="Group 401" transform="translate(0 0)">
        <g id="Group_400" data-name="Group 400">
          <path id="Path_223" data-name="Path 223" d="M701.778,597.414a3.4,3.4,0,1,1,3.4-3.4A3.406,3.406,0,0,1,701.778,597.414Zm0-5.35a1.947,1.947,0,1,0,1.947,1.947A1.95,1.95,0,0,0,701.778,592.064Z" transform="translate(-698.376 -590.609)" fill="#fff"/>
        </g>
      </g>
    </g>
    <g id="Ellipse_5-4" data-name="Ellipse 5" transform="translate(678.802 591.664)">
      <g id="Group_403" data-name="Group 403" transform="translate(19.447)">
        <g id="Group_402" data-name="Group 402">
          <path id="Path_224" data-name="Path 224" d="M731.185,603.461" transform="translate(-731.185 -603.461)" fill="#fff"/>
        </g>
      </g>
      <g id="Group_405" data-name="Group 405" transform="translate(0 1.343)">
        <g id="Group_404" data-name="Group 404">
          <path id="Path_225" data-name="Path 225" d="M725.824,669.427H712.05v-5.59a3.5,3.5,0,1,0-7,0v5.59H691.093V610.359h15.286v1.455H692.548v56.157H703.6v-4.135a4.953,4.953,0,1,1,9.906,0v4.135h10.864V607.684H709.279v14.481h-1.455V606.229h18Z" transform="translate(-691.093 -606.229)" fill="#fff"/>
        </g>
      </g>
    </g>
    <g id="Group_407" data-name="Group 407" transform="translate(701.922 580.553)">
      <g id="Group_406" data-name="Group 406" transform="translate(0)">
        <path id="Path_226" data-name="Path 226" d="M758.649,655.594h-1.455V582.008H740.213v11.727h-1.455V580.553h19.891Z" transform="translate(-738.758 -580.553)" fill="#fff"/>
      </g>
    </g>
    <g id="Group_409" data-name="Group 409" transform="translate(668.768 654.906)">
      <g id="Group_408" data-name="Group 408" transform="translate(0)">
        <rect id="Rectangle_76" data-name="Rectangle 76" width="96.964" height="1.455" fill="#fff"/>
      </g>
    </g>
    <g id="Group_446" data-name="Group 446" transform="translate(708.054 584.585)">
      <g id="Group_411" data-name="Group 411" transform="translate(0 0.004)">
        <g id="Group_410" data-name="Group 410">
          <path id="Path_227" data-name="Path 227" d="M752.341,588.875a.887.887,0,0,0-.94.941v1.036a.94.94,0,1,0,1.881,0v-1.036A.941.941,0,0,0,752.341,588.875Z" transform="translate(-751.4 -588.875)" fill="#fff"/>
        </g>
      </g>
      <g id="Group_413" data-name="Group 413" transform="translate(3.859)">
        <g id="Group_412" data-name="Group 412">
          <path id="Path_228" data-name="Path 228" d="M760.3,591.784a.887.887,0,0,0,.94-.94v-1.037a.94.94,0,1,0-1.881,0v1.037A.941.941,0,0,0,760.3,591.784Z" transform="translate(-759.355 -588.866)" fill="#fff"/>
        </g>
      </g>
      <g id="Group_415" data-name="Group 415" transform="translate(7.621)">
        <g id="Group_414" data-name="Group 414">
          <path id="Path_229" data-name="Path 229" d="M768.052,591.784a.887.887,0,0,0,.941-.94v-1.037a.941.941,0,0,0-1.882,0v1.037A1.012,1.012,0,0,0,768.052,591.784Z" transform="translate(-767.112 -588.866)" fill="#fff"/>
        </g>
      </g>
      <g id="Group_417" data-name="Group 417" transform="translate(0 4.141)">
        <g id="Group_416" data-name="Group 416">
          <path id="Path_230" data-name="Path 230" d="M752.341,597.4a.887.887,0,0,0-.94.941v1.036a.94.94,0,0,0,1.881,0v-1.036A.887.887,0,0,0,752.341,597.4Z" transform="translate(-751.4 -597.404)" fill="#fff"/>
        </g>
      </g>
      <g id="Group_419" data-name="Group 419" transform="translate(3.859 4.046)">
        <g id="Group_418" data-name="Group 418">
          <path id="Path_231" data-name="Path 231" d="M760.3,600.125a.887.887,0,0,0,.94-.94v-1.037a.94.94,0,1,0-1.881,0v1.037A.887.887,0,0,0,760.3,600.125Z" transform="translate(-759.355 -597.207)" fill="#fff"/>
        </g>
      </g>
      <g id="Group_421" data-name="Group 421" transform="translate(7.621 4.046)">
        <g id="Group_420" data-name="Group 420">
          <path id="Path_232" data-name="Path 232" d="M768.052,600.125a.887.887,0,0,0,.941-.94v-1.037a.941.941,0,0,0-1.882,0v1.037A.942.942,0,0,0,768.052,600.125Z" transform="translate(-767.112 -597.207)" fill="#fff"/>
        </g>
      </g>
      <g id="Group_423" data-name="Group 423" transform="translate(7.621 8.183)">
        <g id="Group_422" data-name="Group 422">
          <path id="Path_233" data-name="Path 233" d="M768.052,608.654a.887.887,0,0,0,.941-.94v-1.036a.941.941,0,1,0-1.882,0v1.036A1.011,1.011,0,0,0,768.052,608.654Z" transform="translate(-767.112 -605.736)" fill="#fff"/>
        </g>
      </g>
      <g id="Group_425" data-name="Group 425" transform="translate(7.621 12.699)">
        <g id="Group_424" data-name="Group 424">
          <path id="Path_234" data-name="Path 234" d="M768.052,617.965a.887.887,0,0,0,.941-.941v-1.036a.941.941,0,0,0-1.882,0v1.036A.942.942,0,0,0,768.052,617.965Z" transform="translate(-767.112 -615.047)" fill="#fff"/>
        </g>
      </g>
      <g id="Group_427" data-name="Group 427" transform="translate(7.621 16.841)">
        <g id="Group_426" data-name="Group 426">
          <path id="Path_235" data-name="Path 235" d="M768.052,626.5a.888.888,0,0,0,.941-.941v-1.036a.941.941,0,0,0-1.882,0v1.036A1.012,1.012,0,0,0,768.052,626.5Z" transform="translate(-767.112 -623.586)" fill="#fff"/>
        </g>
      </g>
      <g id="Group_429" data-name="Group 429" transform="translate(7.621 20.882)">
        <g id="Group_428" data-name="Group 428">
          <path id="Path_236" data-name="Path 236" d="M768.052,634.835a.887.887,0,0,0,.941-.941v-1.036a.941.941,0,0,0-1.882,0v1.036A.942.942,0,0,0,768.052,634.835Z" transform="translate(-767.112 -631.917)" fill="#fff"/>
        </g>
      </g>
      <g id="Group_431" data-name="Group 431" transform="translate(7.621 25.024)">
        <g id="Group_430" data-name="Group 430">
          <path id="Path_237" data-name="Path 237" d="M768.052,643.374a.888.888,0,0,0,.941-.941V641.4a.941.941,0,0,0-1.882,0v1.036A1.012,1.012,0,0,0,768.052,643.374Z" transform="translate(-767.112 -640.456)" fill="#fff"/>
        </g>
      </g>
      <g id="Group_433" data-name="Group 433" transform="translate(7.621 29.07)">
        <g id="Group_432" data-name="Group 432">
          <path id="Path_238" data-name="Path 238" d="M768.052,651.715a.888.888,0,0,0,.941-.941v-1.036a.941.941,0,0,0-1.882,0v1.036A.945.945,0,0,0,768.052,651.715Z" transform="translate(-767.112 -648.797)" fill="#fff"/>
        </g>
      </g>
      <g id="Group_435" data-name="Group 435" transform="translate(7.621 33.207)">
        <g id="Group_434" data-name="Group 434">
          <path id="Path_239" data-name="Path 239" d="M768.052,660.244a.887.887,0,0,0,.941-.941v-1.037a.941.941,0,0,0-1.882,0V659.3A1.012,1.012,0,0,0,768.052,660.244Z" transform="translate(-767.112 -657.326)" fill="#fff"/>
        </g>
      </g>
      <g id="Group_437" data-name="Group 437" transform="translate(7.621 37.252)">
        <g id="Group_436" data-name="Group 436">
          <path id="Path_240" data-name="Path 240" d="M768.052,668.585a.887.887,0,0,0,.941-.941v-1.036a.941.941,0,0,0-1.882,0v1.036A.944.944,0,0,0,768.052,668.585Z" transform="translate(-767.112 -665.667)" fill="#fff"/>
        </g>
      </g>
      <g id="Group_439" data-name="Group 439" transform="translate(7.621 41.65)">
        <g id="Group_438" data-name="Group 438">
          <path id="Path_241" data-name="Path 241" d="M768.052,677.652a.887.887,0,0,0,.941-.941v-1.036a.941.941,0,1,0-1.882,0v1.036A.942.942,0,0,0,768.052,677.652Z" transform="translate(-767.112 -674.734)" fill="#fff"/>
        </g>
      </g>
      <g id="Group_441" data-name="Group 441" transform="translate(7.621 45.792)">
        <g id="Group_440" data-name="Group 440">
          <path id="Path_242" data-name="Path 242" d="M768.052,686.191a.887.887,0,0,0,.941-.94v-1.037a.941.941,0,0,0-1.882,0v1.037A1.012,1.012,0,0,0,768.052,686.191Z" transform="translate(-767.112 -683.273)" fill="#fff"/>
        </g>
      </g>
      <g id="Group_443" data-name="Group 443" transform="translate(7.621 49.838)">
        <g id="Group_442" data-name="Group 442">
          <path id="Path_243" data-name="Path 243" d="M768.052,694.532a.887.887,0,0,0,.941-.941v-1.037a.941.941,0,0,0-1.882,0v1.037A.944.944,0,0,0,768.052,694.532Z" transform="translate(-767.112 -691.614)" fill="#fff"/>
        </g>
      </g>
      <g id="Group_445" data-name="Group 445" transform="translate(7.621 53.975)">
        <g id="Group_444" data-name="Group 444">
          <path id="Path_244" data-name="Path 244" d="M768.052,703.061a.887.887,0,0,0,.941-.94v-1.037a.941.941,0,0,0-1.882,0v1.037A1.012,1.012,0,0,0,768.052,703.061Z" transform="translate(-767.112 -700.143)" fill="#fff"/>
        </g>
      </g>
    </g>
    <g id="Group_461" data-name="Group 461" transform="translate(682.564 603.13)">
      <g id="Group_448" data-name="Group 448" transform="translate(0)">
        <g id="Group_447" data-name="Group 447">
          <path id="Path_245" data-name="Path 245" d="M699.791,630.295a.887.887,0,0,0,.94-.94v-1.315a.941.941,0,1,0-1.882,0v1.315A.889.889,0,0,0,699.791,630.295Z" transform="translate(-698.85 -627.098)" fill="#fff"/>
        </g>
      </g>
      <g id="Group_450" data-name="Group 450" transform="translate(3.763)">
        <g id="Group_449" data-name="Group 449">
          <path id="Path_246" data-name="Path 246" d="M707.548,630.295a.887.887,0,0,0,.941-.94v-1.315a.941.941,0,1,0-1.881,0v1.315A.941.941,0,0,0,707.548,630.295Z" transform="translate(-706.608 -627.098)" fill="#fff"/>
        </g>
      </g>
      <g id="Group_452" data-name="Group 452" transform="translate(7.622)">
        <g id="Group_451" data-name="Group 451">
          <path id="Path_247" data-name="Path 247" d="M715.5,630.295a.887.887,0,0,0,.94-.94v-1.315a.94.94,0,1,0-1.881,0v1.315A.887.887,0,0,0,715.5,630.295Z" transform="translate(-714.563 -627.098)" fill="#fff"/>
        </g>
      </g>
      <g id="Group_454" data-name="Group 454" transform="translate(0 5.366)">
        <g id="Group_453" data-name="Group 453">
          <path id="Path_248" data-name="Path 248" d="M699.791,641.357a.887.887,0,0,0,.94-.941V639.1a.941.941,0,1,0-1.882,0v1.315A.945.945,0,0,0,699.791,641.357Z" transform="translate(-698.85 -638.16)" fill="#fff"/>
        </g>
      </g>
      <g id="Group_456" data-name="Group 456" transform="translate(3.763 5.366)">
        <g id="Group_455" data-name="Group 455">
          <path id="Path_249" data-name="Path 249" d="M707.548,641.357a.887.887,0,0,0,.941-.941V639.1a.941.941,0,1,0-1.881,0v1.315A1.011,1.011,0,0,0,707.548,641.357Z" transform="translate(-706.608 -638.16)" fill="#fff"/>
        </g>
      </g>
      <g id="Group_458" data-name="Group 458" transform="translate(0 10.631)">
        <g id="Group_457" data-name="Group 457">
          <path id="Path_250" data-name="Path 250" d="M699.791,652.211a.887.887,0,0,0,.94-.94v-1.315a.941.941,0,0,0-1.882,0v1.315A.889.889,0,0,0,699.791,652.211Z" transform="translate(-698.85 -649.015)" fill="#fff"/>
        </g>
      </g>
      <g id="Group_460" data-name="Group 460" transform="translate(3.763 10.631)">
        <g id="Group_459" data-name="Group 459">
          <path id="Path_251" data-name="Path 251" d="M707.548,652.211a.887.887,0,0,0,.941-.94v-1.315a.941.941,0,0,0-1.881,0v1.315A.941.941,0,0,0,707.548,652.211Z" transform="translate(-706.608 -649.015)" fill="#fff"/>
        </g>
      </g>
    </g>
    <g id="Group_482" data-name="Group 482" transform="translate(699.592 597.865)">
      <g id="Group_463" data-name="Group 463" transform="translate(7.621 0)">
        <g id="Group_462" data-name="Group 462">
          <path id="Path_252" data-name="Path 252" d="M750.608,619.441a.887.887,0,0,1-.941-.941v-1.315a.941.941,0,0,1,1.881,0V618.5A.945.945,0,0,1,750.608,619.441Z" transform="translate(-749.667 -616.244)" fill="#fff"/>
        </g>
      </g>
      <g id="Group_465" data-name="Group 465" transform="translate(3.859 0)">
        <g id="Group_464" data-name="Group 464">
          <path id="Path_253" data-name="Path 253" d="M742.85,619.441a.887.887,0,0,1-.94-.941v-1.315a.941.941,0,0,1,1.881,0V618.5A1.012,1.012,0,0,1,742.85,619.441Z" transform="translate(-741.91 -616.244)" fill="#fff"/>
        </g>
      </g>
      <g id="Group_467" data-name="Group 467" transform="translate(0 0)">
        <g id="Group_466" data-name="Group 466">
          <path id="Path_254" data-name="Path 254" d="M734.9,619.441a.887.887,0,0,1-.941-.941v-1.315a.941.941,0,0,1,1.881,0V618.5A.942.942,0,0,1,734.9,619.441Z" transform="translate(-733.955 -616.244)" fill="#fff"/>
        </g>
      </g>
      <g id="Group_469" data-name="Group 469" transform="translate(7.621 5.265)">
        <g id="Group_468" data-name="Group 468">
          <path id="Path_255" data-name="Path 255" d="M750.608,630.295a.887.887,0,0,1-.941-.94v-1.315a.941.941,0,1,1,1.881,0v1.315A.889.889,0,0,1,750.608,630.295Z" transform="translate(-749.667 -627.098)" fill="#fff"/>
        </g>
      </g>
      <g id="Group_471" data-name="Group 471" transform="translate(3.859 5.265)">
        <g id="Group_470" data-name="Group 470">
          <path id="Path_256" data-name="Path 256" d="M742.85,630.295a.887.887,0,0,1-.94-.94v-1.315a.941.941,0,1,1,1.881,0v1.315A.941.941,0,0,1,742.85,630.295Z" transform="translate(-741.91 -627.098)" fill="#fff"/>
        </g>
      </g>
      <g id="Group_473" data-name="Group 473" transform="translate(0 5.265)">
        <g id="Group_472" data-name="Group 472">
          <path id="Path_257" data-name="Path 257" d="M734.9,630.295a.887.887,0,0,1-.941-.94v-1.315a.941.941,0,1,1,1.881,0v1.315A.887.887,0,0,1,734.9,630.295Z" transform="translate(-733.955 -627.098)" fill="#fff"/>
        </g>
      </g>
      <g id="Group_475" data-name="Group 475" transform="translate(7.621 10.63)">
        <g id="Group_474" data-name="Group 474">
          <path id="Path_258" data-name="Path 258" d="M750.608,641.357a.887.887,0,0,1-.941-.941V639.1a.941.941,0,1,1,1.881,0v1.315A.944.944,0,0,1,750.608,641.357Z" transform="translate(-749.667 -638.16)" fill="#fff"/>
        </g>
      </g>
      <g id="Group_477" data-name="Group 477" transform="translate(3.859 10.63)">
        <g id="Group_476" data-name="Group 476">
          <path id="Path_259" data-name="Path 259" d="M742.85,641.357a.887.887,0,0,1-.94-.941V639.1a.941.941,0,1,1,1.881,0v1.315A1.011,1.011,0,0,1,742.85,641.357Z" transform="translate(-741.91 -638.16)" fill="#fff"/>
        </g>
      </g>
      <g id="Group_479" data-name="Group 479" transform="translate(7.621 15.896)">
        <g id="Group_478" data-name="Group 478">
          <path id="Path_260" data-name="Path 260" d="M750.608,652.211a.887.887,0,0,1-.941-.94v-1.315a.941.941,0,0,1,1.881,0v1.315A.889.889,0,0,1,750.608,652.211Z" transform="translate(-749.667 -649.015)" fill="#fff"/>
        </g>
      </g>
      <g id="Group_481" data-name="Group 481" transform="translate(3.859 15.896)">
        <g id="Group_480" data-name="Group 480">
          <path id="Path_261" data-name="Path 261" d="M742.85,652.211a.887.887,0,0,1-.94-.94v-1.315a.941.941,0,0,1,1.881,0v1.315A.941.941,0,0,1,742.85,652.211Z" transform="translate(-741.91 -649.015)" fill="#fff"/>
        </g>
      </g>
    </g>
    <g id="Group_495" data-name="Group 495" transform="translate(682.564 629.156)">
      <g id="Group_484" data-name="Group 484" transform="translate(0 0)">
        <g id="Group_483" data-name="Group 483">
          <path id="Path_262" data-name="Path 262" d="M699.791,683.952a.887.887,0,0,0,.94-.94V681.7a.941.941,0,0,0-1.882,0v1.315A.944.944,0,0,0,699.791,683.952Z" transform="translate(-698.85 -680.756)" fill="#fff"/>
        </g>
      </g>
      <g id="Group_486" data-name="Group 486" transform="translate(3.763 0)">
        <g id="Group_485" data-name="Group 485">
          <path id="Path_263" data-name="Path 263" d="M707.548,683.952a.887.887,0,0,0,.941-.94V681.7a.941.941,0,1,0-1.881,0v1.315A1.011,1.011,0,0,0,707.548,683.952Z" transform="translate(-706.608 -680.756)" fill="#fff"/>
        </g>
      </g>
      <g id="Group_488" data-name="Group 488" transform="translate(0 5.265)">
        <g id="Group_487" data-name="Group 487">
          <path id="Path_264" data-name="Path 264" d="M699.791,694.806a.887.887,0,0,0,.94-.94v-1.315a.941.941,0,0,0-1.882,0v1.315A.889.889,0,0,0,699.791,694.806Z" transform="translate(-698.85 -691.61)" fill="#fff"/>
        </g>
      </g>
      <g id="Group_490" data-name="Group 490" transform="translate(3.763 5.265)">
        <g id="Group_489" data-name="Group 489">
          <path id="Path_265" data-name="Path 265" d="M707.548,694.806a.887.887,0,0,0,.941-.94v-1.315a.941.941,0,1,0-1.881,0v1.315A.941.941,0,0,0,707.548,694.806Z" transform="translate(-706.608 -691.61)" fill="#fff"/>
        </g>
      </g>
      <g id="Group_492" data-name="Group 492" transform="translate(0 10.63)">
        <g id="Group_491" data-name="Group 491">
          <path id="Path_266" data-name="Path 266" d="M699.791,705.869a.887.887,0,0,0,.94-.941v-1.315a.941.941,0,0,0-1.882,0v1.315A.944.944,0,0,0,699.791,705.869Z" transform="translate(-698.85 -702.672)" fill="#fff"/>
        </g>
      </g>
      <g id="Group_494" data-name="Group 494" transform="translate(3.763 10.63)">
        <g id="Group_493" data-name="Group 493">
          <path id="Path_267" data-name="Path 267" d="M707.548,705.869a.887.887,0,0,0,.941-.941v-1.315a.941.941,0,1,0-1.881,0v1.315A1.011,1.011,0,0,0,707.548,705.869Z" transform="translate(-706.608 -702.672)" fill="#fff"/>
        </g>
      </g>
    </g>
    <g id="Group_508" data-name="Group 508" transform="translate(703.451 629.156)">
      <g id="Group_497" data-name="Group 497" transform="translate(3.763 0)">
        <g id="Group_496" data-name="Group 496">
          <path id="Path_268" data-name="Path 268" d="M750.608,683.952a.887.887,0,0,1-.941-.94V681.7a.941.941,0,0,1,1.881,0v1.315A.944.944,0,0,1,750.608,683.952Z" transform="translate(-749.667 -680.756)" fill="#fff"/>
        </g>
      </g>
      <g id="Group_499" data-name="Group 499" transform="translate(0 0)">
        <g id="Group_498" data-name="Group 498">
          <path id="Path_269" data-name="Path 269" d="M742.85,683.952a.887.887,0,0,1-.94-.94V681.7a.941.941,0,1,1,1.881,0v1.315A1.011,1.011,0,0,1,742.85,683.952Z" transform="translate(-741.91 -680.756)" fill="#fff"/>
        </g>
      </g>
      <g id="Group_501" data-name="Group 501" transform="translate(3.763 5.265)">
        <g id="Group_500" data-name="Group 500">
          <path id="Path_270" data-name="Path 270" d="M750.608,694.806a.887.887,0,0,1-.941-.94v-1.315a.941.941,0,0,1,1.881,0v1.315A.889.889,0,0,1,750.608,694.806Z" transform="translate(-749.667 -691.61)" fill="#fff"/>
        </g>
      </g>
      <g id="Group_503" data-name="Group 503" transform="translate(0 5.265)">
        <g id="Group_502" data-name="Group 502">
          <path id="Path_271" data-name="Path 271" d="M742.85,694.806a.887.887,0,0,1-.94-.94v-1.315a.941.941,0,1,1,1.881,0v1.315A.941.941,0,0,1,742.85,694.806Z" transform="translate(-741.91 -691.61)" fill="#fff"/>
        </g>
      </g>
      <g id="Group_505" data-name="Group 505" transform="translate(3.763 10.63)">
        <g id="Group_504" data-name="Group 504">
          <path id="Path_272" data-name="Path 272" d="M750.608,705.869a.887.887,0,0,1-.941-.941v-1.315a.941.941,0,0,1,1.881,0v1.315A.944.944,0,0,1,750.608,705.869Z" transform="translate(-749.667 -702.672)" fill="#fff"/>
        </g>
      </g>
      <g id="Group_507" data-name="Group 507" transform="translate(0 10.63)">
        <g id="Group_506" data-name="Group 506">
          <path id="Path_273" data-name="Path 273" d="M742.85,705.869a.887.887,0,0,1-.94-.941v-1.315a.941.941,0,1,1,1.881,0v1.315A1.011,1.011,0,0,1,742.85,705.869Z" transform="translate(-741.91 -702.672)" fill="#fff"/>
        </g>
      </g>
    </g>
    <g id="Group_533" data-name="Group 533" transform="translate(726.608 592.358)">
      <g id="Group_510" data-name="Group 510" transform="translate(0)">
        <g id="Group_509" data-name="Group 509">
          <path id="Path_274" data-name="Path 274" d="M790.593,608.466a.887.887,0,0,0,.94-.941v-1.694a.941.941,0,0,0-1.881,0v1.694A1.012,1.012,0,0,0,790.593,608.466Z" transform="translate(-789.652 -604.891)" fill="#fff"/>
        </g>
      </g>
      <g id="Group_512" data-name="Group 512" transform="translate(3.854)">
        <g id="Group_511" data-name="Group 511">
          <path id="Path_275" data-name="Path 275" d="M798.539,608.466a.887.887,0,0,0,.94-.941v-1.694a.94.94,0,1,0-1.881,0v1.694A.944.944,0,0,0,798.539,608.466Z" transform="translate(-797.598 -604.891)" fill="#fff"/>
        </g>
      </g>
      <g id="Group_514" data-name="Group 514" transform="translate(7.617)">
        <g id="Group_513" data-name="Group 513">
          <path id="Path_276" data-name="Path 276" d="M806.3,608.466a.887.887,0,0,0,.941-.941v-1.694a.941.941,0,0,0-1.882,0v1.694A1.012,1.012,0,0,0,806.3,608.466Z" transform="translate(-805.355 -604.891)" fill="#fff"/>
        </g>
      </g>
      <g id="Group_516" data-name="Group 516" transform="translate(0 7.055)">
        <g id="Group_515" data-name="Group 515">
          <path id="Path_277" data-name="Path 277" d="M790.593,623.011a.887.887,0,0,0,.94-.941v-1.694a.941.941,0,0,0-1.881,0v1.694A1.012,1.012,0,0,0,790.593,623.011Z" transform="translate(-789.652 -619.436)" fill="#fff"/>
        </g>
      </g>
      <g id="Group_518" data-name="Group 518" transform="translate(3.854 7.055)">
        <g id="Group_517" data-name="Group 517">
          <path id="Path_278" data-name="Path 278" d="M798.539,623.011a.887.887,0,0,0,.94-.941v-1.694a.94.94,0,0,0-1.881,0v1.694A.944.944,0,0,0,798.539,623.011Z" transform="translate(-797.598 -619.436)" fill="#fff"/>
        </g>
      </g>
      <g id="Group_520" data-name="Group 520" transform="translate(7.617 7.055)">
        <g id="Group_519" data-name="Group 519">
          <path id="Path_279" data-name="Path 279" d="M806.3,623.011a.887.887,0,0,0,.941-.941v-1.694a.941.941,0,0,0-1.882,0v1.694A1.012,1.012,0,0,0,806.3,623.011Z" transform="translate(-805.355 -619.436)" fill="#fff"/>
        </g>
      </g>
      <g id="Group_522" data-name="Group 522" transform="translate(0 14.11)">
        <g id="Group_521" data-name="Group 521">
          <path id="Path_280" data-name="Path 280" d="M790.593,637.556a.887.887,0,0,0,.94-.941v-1.694a.941.941,0,0,0-1.881,0v1.694A.942.942,0,0,0,790.593,637.556Z" transform="translate(-789.652 -633.981)" fill="#fff"/>
        </g>
      </g>
      <g id="Group_524" data-name="Group 524" transform="translate(3.854 14.11)">
        <g id="Group_523" data-name="Group 523">
          <path id="Path_281" data-name="Path 281" d="M798.539,637.556a.887.887,0,0,0,.94-.941v-1.694a.94.94,0,0,0-1.881,0v1.694A.889.889,0,0,0,798.539,637.556Z" transform="translate(-797.598 -633.981)" fill="#fff"/>
        </g>
      </g>
      <g id="Group_526" data-name="Group 526" transform="translate(7.617 14.11)">
        <g id="Group_525" data-name="Group 525">
          <path id="Path_282" data-name="Path 282" d="M806.3,637.556a.887.887,0,0,0,.941-.941v-1.694a.941.941,0,0,0-1.882,0v1.694A.942.942,0,0,0,806.3,637.556Z" transform="translate(-805.355 -633.981)" fill="#fff"/>
        </g>
      </g>
      <g id="Group_528" data-name="Group 528" transform="translate(0 21.165)">
        <g id="Group_527" data-name="Group 527">
          <path id="Path_283" data-name="Path 283" d="M790.593,652.1a.887.887,0,0,0,.94-.941v-1.694a.941.941,0,1,0-1.881,0v1.694A.942.942,0,0,0,790.593,652.1Z" transform="translate(-789.652 -648.525)" fill="#fff"/>
        </g>
      </g>
      <g id="Group_530" data-name="Group 530" transform="translate(3.854 21.165)">
        <g id="Group_529" data-name="Group 529">
          <path id="Path_284" data-name="Path 284" d="M798.539,652.1a.887.887,0,0,0,.94-.941v-1.694a.94.94,0,1,0-1.881,0v1.694A.889.889,0,0,0,798.539,652.1Z" transform="translate(-797.598 -648.525)" fill="#fff"/>
        </g>
      </g>
      <g id="Group_532" data-name="Group 532" transform="translate(7.617 21.165)">
        <g id="Group_531" data-name="Group 531">
          <path id="Path_285" data-name="Path 285" d="M806.3,652.1a.887.887,0,0,0,.941-.941v-1.694a.941.941,0,1,0-1.882,0v1.694A.942.942,0,0,0,806.3,652.1Z" transform="translate(-805.355 -648.525)" fill="#fff"/>
        </g>
      </g>
    </g>
    <g id="Group_552" data-name="Group 552" transform="translate(726.608 619.717)">
      <g id="Group_535" data-name="Group 535" transform="translate(0)">
        <g id="Group_534" data-name="Group 534">
          <path id="Path_286" data-name="Path 286" d="M790.593,664.871a.887.887,0,0,0,.94-.941v-1.694a.941.941,0,1,0-1.881,0v1.694A1.012,1.012,0,0,0,790.593,664.871Z" transform="translate(-789.652 -661.296)" fill="#fff"/>
        </g>
      </g>
      <g id="Group_537" data-name="Group 537" transform="translate(3.854)">
        <g id="Group_536" data-name="Group 536">
          <path id="Path_287" data-name="Path 287" d="M798.539,664.871a.887.887,0,0,0,.94-.941v-1.694a.94.94,0,1,0-1.881,0v1.694A.944.944,0,0,0,798.539,664.871Z" transform="translate(-797.598 -661.296)" fill="#fff"/>
        </g>
      </g>
      <g id="Group_539" data-name="Group 539" transform="translate(7.617)">
        <g id="Group_538" data-name="Group 538">
          <path id="Path_288" data-name="Path 288" d="M806.3,664.871a.887.887,0,0,0,.941-.941v-1.694a.941.941,0,1,0-1.882,0v1.694A1.012,1.012,0,0,0,806.3,664.871Z" transform="translate(-805.355 -661.296)" fill="#fff"/>
        </g>
      </g>
      <g id="Group_541" data-name="Group 541" transform="translate(0 7.055)">
        <g id="Group_540" data-name="Group 540">
          <path id="Path_289" data-name="Path 289" d="M790.593,679.416a.887.887,0,0,0,.94-.94v-1.694a.941.941,0,1,0-1.881,0v1.694A1.011,1.011,0,0,0,790.593,679.416Z" transform="translate(-789.652 -675.841)" fill="#fff"/>
        </g>
      </g>
      <g id="Group_543" data-name="Group 543" transform="translate(3.854 7.055)">
        <g id="Group_542" data-name="Group 542">
          <path id="Path_290" data-name="Path 290" d="M798.539,679.416a.887.887,0,0,0,.94-.94v-1.694a.94.94,0,1,0-1.881,0v1.694A.944.944,0,0,0,798.539,679.416Z" transform="translate(-797.598 -675.841)" fill="#fff"/>
        </g>
      </g>
      <g id="Group_545" data-name="Group 545" transform="translate(7.617 7.055)">
        <g id="Group_544" data-name="Group 544">
          <path id="Path_291" data-name="Path 291" d="M806.3,679.416a.887.887,0,0,0,.941-.94v-1.694a.941.941,0,1,0-1.882,0v1.694A1.011,1.011,0,0,0,806.3,679.416Z" transform="translate(-805.355 -675.841)" fill="#fff"/>
        </g>
      </g>
      <g id="Group_547" data-name="Group 547" transform="translate(0 14.11)">
        <g id="Group_546" data-name="Group 546">
          <path id="Path_292" data-name="Path 292" d="M790.593,693.961a.887.887,0,0,0,.94-.941v-1.694a.941.941,0,1,0-1.881,0v1.694A.942.942,0,0,0,790.593,693.961Z" transform="translate(-789.652 -690.386)" fill="#fff"/>
        </g>
      </g>
      <g id="Group_549" data-name="Group 549" transform="translate(3.854 14.11)">
        <g id="Group_548" data-name="Group 548">
          <path id="Path_293" data-name="Path 293" d="M798.539,693.961a.887.887,0,0,0,.94-.941v-1.694a.94.94,0,1,0-1.881,0v1.694A.889.889,0,0,0,798.539,693.961Z" transform="translate(-797.598 -690.386)" fill="#fff"/>
        </g>
      </g>
      <g id="Group_551" data-name="Group 551" transform="translate(7.617 14.11)">
        <g id="Group_550" data-name="Group 550">
          <path id="Path_294" data-name="Path 294" d="M806.3,693.961a.887.887,0,0,0,.941-.941v-1.694a.941.941,0,1,0-1.882,0v1.694A.942.942,0,0,0,806.3,693.961Z" transform="translate(-805.355 -690.386)" fill="#fff"/>
        </g>
      </g>
    </g>
    <g id="Group_554" data-name="Group 554" transform="translate(720.358 586.775)">
      <g id="Group_553" data-name="Group 553">
        <path id="Path_295" data-name="Path 295" d="M798.765,662.982l-2.675-.055h-5.409v-6.075a3.5,3.5,0,0,0-7,0v6.075H781.4l-4.632.047V593.381h22Zm-20.543-68.146V661.5l4.008-.032v-4.62a4.953,4.953,0,1,1,9.907,0v4.62h3.969l1.2.025V594.836Z" transform="translate(-776.767 -593.381)" fill="#fff"/>
      </g>
    </g>
    <g id="Group_556" data-name="Group 556" transform="translate(749.392 649.309)">
      <g id="Group_555" data-name="Group 555" transform="translate(0)">
        <rect id="Rectangle_77" data-name="Rectangle 77" width="1.455" height="6.325" fill="#fff"/>
      </g>
    </g>
    <g id="Ellipse_5-5" data-name="Ellipse 5" transform="translate(745.648 641.187)">
      <g id="Group_558" data-name="Group 558" transform="translate(0 0)">
        <g id="Group_557" data-name="Group 557">
          <path id="Path_296" data-name="Path 296" d="M833.378,714.5a4.471,4.471,0,1,1,4.471-4.471A4.476,4.476,0,0,1,833.378,714.5Zm0-7.487a3.016,3.016,0,1,0,3.016,3.016A3.019,3.019,0,0,0,833.378,707.014Z" transform="translate(-828.907 -705.559)" fill="#fff"/>
        </g>
      </g>
    </g>
    <g id="Group_560" data-name="Group 560" transform="translate(670.967 649.309)">
      <g id="Group_559" data-name="Group 559">
        <rect id="Rectangle_78" data-name="Rectangle 78" width="1.455" height="6.325" fill="#fff"/>
      </g>
    </g>
    <g id="Ellipse_5-6" data-name="Ellipse 5" transform="translate(667.224 641.187)">
      <g id="Group_562" data-name="Group 562" transform="translate(0 0)">
        <g id="Group_561" data-name="Group 561">
          <path id="Path_297" data-name="Path 297" d="M671.695,714.5a4.471,4.471,0,1,1,4.471-4.471A4.476,4.476,0,0,1,671.695,714.5Zm0-7.487a3.016,3.016,0,1,0,3.016,3.016A3.019,3.019,0,0,0,671.695,707.014Z" transform="translate(-667.224 -705.559)" fill="#fff"/>
        </g>
      </g>
    </g>
    <g id="Ellipse_5-7" data-name="Ellipse 5" transform="translate(746.714 635.643)">
      <g id="Group_564" data-name="Group 564" transform="translate(0 0)">
        <g id="Group_563" data-name="Group 563">
          <path id="Path_298" data-name="Path 298" d="M834.51,700.941a3.406,3.406,0,1,1,3.406-3.406A3.409,3.409,0,0,1,834.51,700.941Zm0-5.356a1.951,1.951,0,1,0,1.95,1.95A1.952,1.952,0,0,0,834.51,695.584Z" transform="translate(-831.104 -694.129)" fill="#fff"/>
        </g>
      </g>
    </g>
  </g>
</svg>
