<svg xmlns="http://www.w3.org/2000/svg" width="91.753" height="75.212" viewBox="0 0 91.753 75.212" >
  <g id="Group_588" data-name="Group 588" transform="translate(-993.861 -592.715)">
    <g id="Group_566" data-name="Group 566" transform="translate(1002.685 631.754)">
      <rect id="Rectangle_79" data-name="Rectangle 79" width="18.618" height="1.781" transform="translate(0 0)" fill="#fff"/>
    </g>
    <g id="Group_567" data-name="Group 567" transform="translate(1057.34 631.755)">
      <rect id="Rectangle_80" data-name="Rectangle 80" width="18.552" height="1.781" transform="translate(0 0.097) rotate(-0.298)" fill="#fff"/>
    </g>
    <g id="Path_16" data-name="Path 16" transform="translate(1041.255 634.162)">
      <rect id="Rectangle_81" data-name="Rectangle 81" width="12.797" height="1.781" transform="translate(0 8.808) rotate(-43.496)" fill="#fff"/>
    </g>
    <g id="Path_16-2" data-name="Path 16" transform="translate(1038.313 622.909)">
      <rect id="Rectangle_82" data-name="Rectangle 82" width="1.781" height="19.178" transform="translate(0 0)" fill="#fff"/>
    </g>
    <g id="Path_16-3" data-name="Path 16" transform="translate(1026.935 621.127)">
      <rect id="Rectangle_83" data-name="Rectangle 83" width="12.265" height="1.782" transform="translate(0 8.438) rotate(-43.47)" fill="#fff"/>
    </g>
    <g id="Ellipse_5" data-name="Ellipse 5" transform="translate(1019.675 627.673)">
      <g id="Group_568" data-name="Group 568" transform="translate(0 0)">
        <path id="Path_299" data-name="Path 299" d="M1042.4,661.727a5.071,5.071,0,1,1,5.071-5.07A5.076,5.076,0,0,1,1042.4,661.727Zm0-8.36a3.289,3.289,0,1,0,3.289,3.289A3.292,3.292,0,0,0,1042.4,653.367Z" transform="translate(-1037.333 -651.586)" fill="#fff"/>
      </g>
    </g>
    <g id="Ellipse_5-2" data-name="Ellipse 5" transform="translate(993.861 627.673)">
      <g id="Group_569" data-name="Group 569" transform="translate(0 0)">
        <path id="Path_300" data-name="Path 300" d="M998.932,661.727a5.071,5.071,0,1,1,5.071-5.07A5.077,5.077,0,0,1,998.932,661.727Zm0-8.36a3.289,3.289,0,1,0,3.289,3.289A3.292,3.292,0,0,0,998.932,653.367Z" transform="translate(-993.861 -651.586)" fill="#fff"/>
      </g>
    </g>
    <g id="Ellipse_5-3" data-name="Ellipse 5" transform="translate(1019.675 657.786)">
      <g id="Group_570" data-name="Group 570" transform="translate(0)">
        <path id="Path_301" data-name="Path 301" d="M1042.4,712.438a5.071,5.071,0,1,1,5.071-5.07A5.077,5.077,0,0,1,1042.4,712.438Zm0-8.36a3.289,3.289,0,1,0,3.289,3.289A3.292,3.292,0,0,0,1042.4,704.078Z" transform="translate(-1037.333 -702.297)" fill="#fff"/>
      </g>
    </g>
    <g id="Ellipse_5-4" data-name="Ellipse 5" transform="translate(1019.675 592.715)">
      <g id="Group_571" data-name="Group 571" transform="translate(0)">
        <path id="Path_302" data-name="Path 302" d="M1042.4,602.855a5.07,5.07,0,1,1,5.071-5.071A5.076,5.076,0,0,1,1042.4,602.855Zm0-8.359a3.289,3.289,0,1,0,3.289,3.288A3.292,3.292,0,0,0,1042.4,594.5Z" transform="translate(-1037.333 -592.715)" fill="#fff"/>
      </g>
    </g>
    <g id="Ellipse_5-5" data-name="Ellipse 5" transform="translate(1048.832 657.786)">
      <g id="Group_572" data-name="Group 572" transform="translate(0)">
        <path id="Path_303" data-name="Path 303" d="M1091.505,712.438a5.071,5.071,0,1,1,5.07-5.07A5.077,5.077,0,0,1,1091.505,712.438Zm0-8.36a3.289,3.289,0,1,0,3.289,3.289A3.292,3.292,0,0,0,1091.505,704.078Z" transform="translate(-1086.435 -702.297)" fill="#fff"/>
      </g>
    </g>
    <g id="Ellipse_5-6" data-name="Ellipse 5" transform="translate(1048.832 592.715)">
      <g id="Group_573" data-name="Group 573" transform="translate(0)">
        <path id="Path_304" data-name="Path 304" d="M1091.505,602.855a5.07,5.07,0,1,1,5.07-5.071A5.076,5.076,0,0,1,1091.505,602.855Zm0-8.359a3.289,3.289,0,1,0,3.289,3.288A3.292,3.292,0,0,0,1091.505,594.5Z" transform="translate(-1086.435 -592.715)" fill="#fff"/>
      </g>
    </g>
    <g id="Ellipse_5-7" data-name="Ellipse 5" transform="translate(1048.832 627.673)">
      <g id="Group_574" data-name="Group 574" transform="translate(0 0)">
        <path id="Path_305" data-name="Path 305" d="M1091.505,661.727a5.071,5.071,0,1,1,5.07-5.07A5.076,5.076,0,0,1,1091.505,661.727Zm0-8.36a3.289,3.289,0,1,0,3.289,3.289A3.292,3.292,0,0,0,1091.505,653.367Z" transform="translate(-1086.435 -651.586)" fill="#fff"/>
      </g>
    </g>
    <g id="Ellipse_5-8" data-name="Ellipse 5" transform="translate(1075.474 627.673)">
      <g id="Group_575" data-name="Group 575" transform="translate(0 0)">
        <path id="Path_306" data-name="Path 306" d="M1136.37,661.727a5.071,5.071,0,1,1,5.07-5.07A5.076,5.076,0,0,1,1136.37,661.727Zm0-8.36a3.289,3.289,0,1,0,3.289,3.289A3.292,3.292,0,0,0,1136.37,653.367Z" transform="translate(-1131.3 -651.586)" fill="#fff"/>
      </g>
    </g>
    <g id="Ellipse_6" data-name="Ellipse 6" transform="translate(1033.936 614.397)">
      <g id="Group_576" data-name="Group 576" transform="translate(0 0)">
        <path id="Path_307" data-name="Path 307" d="M1066.419,639.368a5.07,5.07,0,1,1,5.07-5.07A5.076,5.076,0,0,1,1066.419,639.368Zm0-8.359a3.289,3.289,0,1,0,3.289,3.289A3.292,3.292,0,0,0,1066.419,631.009Z" transform="translate(-1061.349 -629.228)" fill="#fff"/>
      </g>
    </g>
    <g id="Ellipse_7" data-name="Ellipse 7" transform="translate(1033.936 640.458)">
      <g id="Group_577" data-name="Group 577">
        <path id="Path_308" data-name="Path 308" d="M1066.419,683.257a5.07,5.07,0,1,1,5.07-5.071A5.077,5.077,0,0,1,1066.419,683.257Zm0-8.359a3.289,3.289,0,1,0,3.289,3.288A3.292,3.292,0,0,0,1066.419,674.9Z" transform="translate(-1061.349 -673.117)" fill="#fff"/>
      </g>
    </g>
    <g id="Group_578" data-name="Group 578" transform="translate(998.234 600.286)">
      <rect id="Rectangle_84" data-name="Rectangle 84" width="35.534" height="1.781" transform="translate(0 27.718) rotate(-51.264)" fill="#fff"/>
    </g>
    <g id="Group_579" data-name="Group 579" transform="translate(998.294 636.302)">
      <rect id="Rectangle_85" data-name="Rectangle 85" width="1.781" height="32.043" transform="translate(0 1.244) rotate(-44.281)" fill="#fff"/>
    </g>
    <g id="Group_580" data-name="Group 580" transform="translate(1056.804 600.271)">
      <rect id="Rectangle_86" data-name="Rectangle 86" width="1.781" height="36.057" transform="translate(0 1.139) rotate(-39.748)" fill="#fff"/>
    </g>
    <g id="Group_581" data-name="Group 581" transform="translate(1057.439 636.307)">
      <rect id="Rectangle_87" data-name="Rectangle 87" width="32.55" height="1.782" transform="translate(0 23.56) rotate(-46.371)" fill="#fff"/>
    </g>
    <g id="Group_582" data-name="Group 582" transform="translate(1023.855 636.924)">
      <rect id="Rectangle_88" data-name="Rectangle 88" width="1.781" height="21.753" transform="translate(0 0)" fill="#fff"/>
    </g>
    <g id="Group_583" data-name="Group 583" transform="translate(1023.855 601.965)">
      <rect id="Rectangle_89" data-name="Rectangle 89" width="1.781" height="26.599" transform="translate(0 0)" fill="#fff"/>
    </g>
    <g id="Group_584" data-name="Group 584" transform="translate(1053.012 601.965)">
      <rect id="Rectangle_90" data-name="Rectangle 90" width="1.781" height="26.599" transform="translate(0 0)" fill="#fff"/>
    </g>
    <g id="Group_585" data-name="Group 585" transform="translate(1053.012 636.924)">
      <rect id="Rectangle_91" data-name="Rectangle 91" width="1.781" height="21.753" transform="translate(0 0)" fill="#fff"/>
    </g>
    <g id="Group_586" data-name="Group 586" transform="translate(1028.035 648.818)">
      <path id="Path_309" data-name="Path 309" d="M1073.1,702.124h-20.8a.891.891,0,0,1-.707-1.433l10.081-13.148a.894.894,0,0,1,.693-.349.975.975,0,0,1,.7.328l10.716,13.148a.891.891,0,0,1-.691,1.453Zm-18.992-1.781h17.117l-8.819-10.822Z" transform="translate(-1051.411 -687.194)" fill="#fff"/>
    </g>
    <g id="Group_587" data-name="Group 587" transform="translate(1028.035 596.894)">
      <path id="Path_310" data-name="Path 310" d="M1062.383,619.037h-.012a.891.891,0,0,1-.76-.446l-10.081-17.5a.891.891,0,0,1,.772-1.336h20.8a.891.891,0,0,1,.76,1.356l-10.716,17.5A.891.891,0,0,1,1062.383,619.037Zm-8.54-17.5,8.563,14.868,9.1-14.868Z" transform="translate(-1051.411 -599.753)" fill="#fff"/>
    </g>
  </g>
</svg>
