<svg xmlns="http://www.w3.org/2000/svg" width="232.75" height="49" viewBox="0 0 232.75 49">
  <g id="Group_17" data-name="Group 17" transform="translate(-116.302 -266.206)">
    <path id="Path_1" data-name="Path 1" d="M259.62,283.223h-2.042c-.564,0-.768.258-.768.768v23.683c0,.509.2.763.768.763h2.042c.51,0,.714-.252.714-.763V283.991C260.334,283.477,260.13,283.223,259.62,283.223Z" transform="translate(-48.636 -5.89)" fill="#fff"/>
    <path id="Path_2" data-name="Path 2" d="M173.031,284.092a6.533,6.533,0,0,0-6.422,6.614,6.667,6.667,0,0,0,1.21,3.837l-9.364,8.968A6.276,6.276,0,0,0,155.6,302.1V279.313a6.6,6.6,0,1,0-7.64-6.486,6.677,6.677,0,0,0,1.021,3.547l-9.428,9.045a6.215,6.215,0,0,0-3.817-1.327,6.479,6.479,0,0,0-6.3,5.422H116.3V291.9h13.131a6.408,6.408,0,0,0,12.736-1.2,6.741,6.741,0,0,0-1.021-3.547l9.423-9.04a6.3,6.3,0,0,0,2.713,1.21v22.757a6.594,6.594,0,1,0,7.529,6.508,6.648,6.648,0,0,0-.86-3.244l9.535-9.132a6.244,6.244,0,0,0,3.543,1.108,6.484,6.484,0,0,0,6.311-5.422h13.523v-2.392H179.342A6.485,6.485,0,0,0,173.031,284.092ZM135.74,294.928a4.221,4.221,0,1,1,4.1-4.222A4.167,4.167,0,0,1,135.74,294.928Zm14.549-22.1a4.1,4.1,0,1,1,4.1,4.222A4.166,4.166,0,0,1,150.289,272.825Zm4.1,39.983a4.221,4.221,0,1,1,4.1-4.217A4.163,4.163,0,0,1,154.388,312.808Zm18.642-17.88a4.221,4.221,0,1,1,4.106-4.222A4.167,4.167,0,0,1,173.031,294.928Z" fill="#fff"/>
    <path id="Path_3" data-name="Path 3" d="M286.2,282.6a13.377,13.377,0,0,0-8.73,3.116l-.1-1.939c-.054-.513-.2-.768-.768-.768h-1.837c-.564,0-.768.257-.768.768v23.683c0,.509.2.762.768.762H276.8c.51,0,.715-.252.715-.762V288.621a12.657,12.657,0,0,1,7.708-2.858c3.267,0,4.491,1.581,4.491,3.879v17.808a.664.664,0,0,0,0,.187.678.678,0,0,0,.767.575h2.042c.51,0,.714-.252.714-.762V288.872C293.241,285.253,290.941,282.6,286.2,282.6Z" transform="translate(-54.584 -5.674)" fill="#fff"/>
    <path id="Path_4" data-name="Path 4" d="M414.716,282.6c-7,0-9.289,2.654-9.291,6.578v12.862c0,3.936,2.247,6.59,9.24,6.59s9.341-2.654,9.341-6.59v-1.372c0-.564-.209-.768-.768-.768h-1.887c-.563,0-.768.2-.768.768v1.123c0,2.4-1.276,3.93-5.819,3.93s-5.819-1.53-5.819-3.93v-12.4c0-2.348,1.276-3.879,5.819-3.879s5.819,1.531,5.819,3.879v.762c0,.513.2.768.768.768h1.887c.563,0,.768-.257.768-.768v-.966C424.006,285.253,421.707,282.6,414.716,282.6Z" transform="translate(-100.078 -5.674)" fill="#fff"/>
    <path id="Path_5" data-name="Path 5" d="M375.841,282.6c-6.89,0-9.189,2.654-9.188,6.486v.864c0,.562.2.817.715.817h1.838c.563,0,.768-.252.768-.817v-.613c0-2.3,1.278-3.828,5.819-3.828s5.766,1.632,5.766,3.93v4.594h-8.779c-4.438,0-6.635,2.708-6.635,6.023v2.552c0,3.318,2.3,6.023,7.043,6.023a13.457,13.457,0,0,0,8.425-3.012l.1,1.837c.048.509.2.763.763.763h1.837c.511,0,.715-.252.715-.763V289.081C385.028,285.253,382.837,282.6,375.841,282.6Zm5.719,20.208a12.374,12.374,0,0,1-7.554,2.859c-3.062,0-4.445-1.272-4.445-3.518v-1.633c0-2.246,1.124-3.675,3.885-3.675h8.116Z" transform="translate(-86.481 -5.674)" fill="#fff"/>
    <path id="Path_6" data-name="Path 6" d="M462,307.635l-10.826-13.529,9.651-10.158c.359-.413.2-.768-.356-.768h-2.3a1.783,1.783,0,0,0-1.225.768l-8.677,8.933h-1.683v-9.006c0-.509-.2-.768-.715-.768h-2.1c-.511,0-.715.258-.715.768v23.759c0,.509.2.762.715.762h2.1c.511,0,.715-.252.715-.762V295.589h1.735l9.8,12.046a1.482,1.482,0,0,0,1.225.762h2.3C462.152,308.4,462.307,307.991,462,307.635Z" transform="translate(-113.106 -5.851)" fill="#fff"/>
    <path id="Path_7" data-name="Path 7" d="M353,282.595c-3.779,0-6.9,2.348-8.328,3.675l-.152-2.5c-.048-.513-.2-.768-.762-.768h-1.837c-.558,0-.762.258-.762.768v23.683c0,.509.2.763.762.763h2.041c.511,0,.715-.252.715-.763V289.23A14.956,14.956,0,0,1,353,285.807a.713.713,0,0,0,.817-.762v-1.688a.726.726,0,0,0-.006-.16A.714.714,0,0,0,353,282.595Z" transform="translate(-77.832 -5.67)" fill="#fff"/>
    <path id="Path_8" data-name="Path 8" d="M324.689,305.481h-.87c-4.542,0-5.921-1.531-5.921-3.93V286.286h5.717a.673.673,0,0,0,.762-.762v-1.429c0-.51-.252-.714-.762-.714h-9.7l-2.654.152c-.511.053-.715.258-.715.768v1.225c0,.508.2.762.715.762h3.063v15.619c0,4.134,2.039,6.584,9.036,6.584h1.327c.508,0,.762-.2.762-.762v-1.479C325.451,305.685,325.2,305.481,324.689,305.481Z" transform="translate(-67.237 -5.945)" fill="#fff"/>
  </g>
</svg>
