<svg xmlns="http://www.w3.org/2000/svg" width="70" height="524.073" viewBox="0 0 70 524.073">
<g transform="translate(-925 -1536.328)" opacity="0.246">
<path d="M982.2,1542.054h-3V1239.286l-29.644-28.758h54.675l-25.03-24.633V1017.981h3v166.657l29.355,28.89h-54.6l25.244,24.489Z" transform="translate(-21 518.348)" fill="#253140"/>
<circle cx="8.5" cy="8.5" r="8.5" transform="translate(951 1695.081)" fill="#fff"/>
<path d="M8.5,3A5.5,5.5,0,1,0,14,8.5,5.506,5.506,0,0,0,8.5,3m0-3A8.5,8.5,0,1,1,0,8.5,8.5,8.5,0,0,1,8.5,0Z" transform="translate(951 1695.081)" fill="#253140"/>
<circle cx="8.5" cy="8.5" r="8.5" transform="translate(978 1721.689)" fill="#fff"/>
<path d="M8.5,3A5.5,5.5,0,1,0,14,8.5,5.506,5.506,0,0,0,8.5,3m0-3A8.5,8.5,0,1,1,0,8.5,8.5,8.5,0,0,1,8.5,0Z" transform="translate(978 1721.689)" fill="#253140"/>
<circle cx="8.5" cy="8.5" r="8.5" transform="translate(925 1721.689)" fill="#fff"/>
<path d="M8.5,3A5.5,5.5,0,1,0,14,8.5,5.506,5.506,0,0,0,8.5,3m0-3A8.5,8.5,0,1,1,0,8.5,8.5,8.5,0,0,1,8.5,0Z" transform="translate(925 1721.689)" fill="#253140"/>
<circle cx="8.5" cy="8.5" r="8.5" transform="translate(951.07 1748.298)" fill="#fff"/>
<path d="M8.5,3A5.5,5.5,0,1,0,14,8.5,5.506,5.506,0,0,0,8.5,3m0-3A8.5,8.5,0,1,1,0,8.5,8.5,8.5,0,0,1,8.5,0Z" transform="translate(951.07 1748.298)" fill="#253140"/>
</g></svg>