<svg xmlns="http://www.w3.org/2000/svg" width="70" height="399.625" viewBox="0 0 70 399.625">
<g transform="translate(-925 -1536.328)" opacity="0.246">
<path d="M982.2,1417.606h-3V1258.438L949.761,1227.4h54.671l-25.237-27V1017.981h3v181.24l29.148,31.18h-54.6l25.454,26.841Z" transform="translate(-21 518.348)" fill="#253140"/>
<circle cx="8.5" cy="8.5" r="8.5" transform="translate(951 1709.348)" fill="#fff"/>
<path d="M8.5,3A5.5,5.5,0,1,0,14,8.5,5.506,5.506,0,0,0,8.5,3m0-3A8.5,8.5,0,1,1,0,8.5,8.5,8.5,0,0,1,8.5,0Z" transform="translate(951 1709.348)" fill="#253140"/>
<circle cx="8.5" cy="8.5" r="8.5" transform="translate(978 1738.348)" fill="#fff"/>
<path d="M8.5,3A5.5,5.5,0,1,0,14,8.5,5.506,5.506,0,0,0,8.5,3m0-3A8.5,8.5,0,1,1,0,8.5,8.5,8.5,0,0,1,8.5,0Z" transform="translate(978 1738.348)" fill="#253140"/>
<circle cx="8.5" cy="8.5" r="8.5" transform="translate(925 1738.348)" fill="#fff"/>
<path d="M8.5,3A5.5,5.5,0,1,0,14,8.5,5.506,5.506,0,0,0,8.5,3m0-3A8.5,8.5,0,1,1,0,8.5,8.5,8.5,0,0,1,8.5,0Z" transform="translate(925 1738.348)" fill="#253140"/>
<circle cx="8.5" cy="8.5" r="8.5" transform="translate(951.07 1767.348)" fill="#fff"/>
<path d="M8.5,3A5.5,5.5,0,1,0,14,8.5,5.506,5.506,0,0,0,8.5,3m0-3A8.5,8.5,0,1,1,0,8.5,8.5,8.5,0,0,1,8.5,0Z" transform="translate(951.07 1767.348)" fill="#253140"/>
</g></svg>