<svg xmlns="http://www.w3.org/2000/svg" width="70" height="1765.758" viewBox="0 0 70 1765.758">
  <g id="Group_630" data-name="Group 630" transform="translate(-4202.197 -18742.166)">
    <g id="Group_310" data-name="Group 310" transform="translate(3277.197 17205.838)">
      <g id="Group_35" data-name="Group 35" opacity="0.246">
        <path id="Path_18" data-name="Path 18" d="M980.7,1017.981v181.832l27.193,29.089H953.251L980.7,1257.84v159.766" transform="translate(-21 518.348)" fill="none" stroke="#253140" stroke-width="3"/>
        <g id="Ellipse_12" data-name="Ellipse 12" transform="translate(951 1709.348)" fill="#fff" stroke="#253140" stroke-width="3">
          <circle cx="8.5" cy="8.5" r="8.5" stroke="none"/>
          <circle cx="8.5" cy="8.5" r="7" fill="none"/>
        </g>
        <g id="Ellipse_13" data-name="Ellipse 13" transform="translate(978 1738.348)" fill="#fff" stroke="#253140" stroke-width="3">
          <circle cx="8.5" cy="8.5" r="8.5" stroke="none"/>
          <circle cx="8.5" cy="8.5" r="7" fill="none"/>
        </g>
        <g id="Ellipse_11" data-name="Ellipse 11" transform="translate(925 1738.348)" fill="#fff" stroke="#253140" stroke-width="3">
          <circle cx="8.5" cy="8.5" r="8.5" stroke="none"/>
          <circle cx="8.5" cy="8.5" r="7" fill="none"/>
        </g>
        <g id="Ellipse_16" data-name="Ellipse 16" transform="translate(951.07 1767.348)" fill="#fff" stroke="#253140" stroke-width="3">
          <circle cx="8.5" cy="8.5" r="8.5" stroke="none"/>
          <circle cx="8.5" cy="8.5" r="7" fill="none"/>
        </g>
      </g>
    </g>
    <g id="Group_34" data-name="Group 34" transform="translate(3277.197 18497.924)">
      <g id="Group_35-2" data-name="Group 35" opacity="0.246">
        <path id="Path_18-2" data-name="Path 18" d="M980.7,125.521V1199.813l27.193,29.089H953.251L980.7,1257.84v233.813" transform="translate(-21 518.348)" fill="none" stroke="#253140" stroke-width="3"/>
        <g id="Ellipse_12-2" data-name="Ellipse 12" transform="translate(951 1709.348)" fill="#fff" stroke="#253140" stroke-width="3">
          <circle cx="8.5" cy="8.5" r="8.5" stroke="none"/>
          <circle cx="8.5" cy="8.5" r="7" fill="none"/>
        </g>
        <g id="Ellipse_13-2" data-name="Ellipse 13" transform="translate(978 1738.348)" fill="#fff" stroke="#253140" stroke-width="3">
          <circle cx="8.5" cy="8.5" r="8.5" stroke="none"/>
          <circle cx="8.5" cy="8.5" r="7" fill="none"/>
        </g>
        <g id="Ellipse_11-2" data-name="Ellipse 11" transform="translate(925 1738.348)" fill="#fff" stroke="#253140" stroke-width="3">
          <circle cx="8.5" cy="8.5" r="8.5" stroke="none"/>
          <circle cx="8.5" cy="8.5" r="7" fill="none"/>
        </g>
        <g id="Ellipse_16-2" data-name="Ellipse 16" transform="translate(951.07 1767.348)" fill="#fff" stroke="#253140" stroke-width="3">
          <circle cx="8.5" cy="8.5" r="8.5" stroke="none"/>
          <circle cx="8.5" cy="8.5" r="7" fill="none"/>
        </g>
      </g>
    </g>
  </g>
</svg>
