<svg xmlns="http://www.w3.org/2000/svg" width="1924.612" height="376.71" viewBox="0 0 1924.612 376.71">
  <g id="Group_326" data-name="Group 326" transform="translate(4.612 -18153.001)" opacity="0.097">
    <g id="Group_324" data-name="Group 324" transform="translate(1215.086 17886.795)" style="isolation: isolate">
      <path id="Path_2" data-name="Path 2" d="M552.43,403.71a50.228,50.228,0,0,0-49.368,50.851,51.257,51.257,0,0,0,9.3,29.5l-71.989,68.943a48.249,48.249,0,0,0-21.922-10.863V366.974a50.712,50.712,0,1,0-58.734-49.866,51.331,51.331,0,0,0,7.847,27.266l-72.482,69.536a47.779,47.779,0,0,0-29.347-10.2,49.811,49.811,0,0,0-48.469,41.683H116.3v18.388H217.256a49.264,49.264,0,0,0,97.913-9.214,51.821,51.821,0,0,0-7.847-27.265l72.442-69.5a48.393,48.393,0,0,0,20.856,9.3V542.058A50.694,50.694,0,1,0,458.5,592.091a51.114,51.114,0,0,0-6.61-24.943l73.3-70.2a48.006,48.006,0,0,0,27.24,8.521,49.849,49.849,0,0,0,48.519-41.682H704.914V445.392H600.949A49.854,49.854,0,0,0,552.43,403.71ZM265.74,487.02a32.454,32.454,0,1,1,31.528-32.458A32.037,32.037,0,0,1,265.74,487.02ZM377.592,317.092a31.532,31.532,0,1,1,31.518,32.458A32.03,32.03,0,0,1,377.592,317.092ZM409.11,624.478a32.452,32.452,0,1,1,31.518-32.418A32,32,0,0,1,409.11,624.478ZM552.43,487.02A32.453,32.453,0,1,1,584,454.561,32.032,32.032,0,0,1,552.43,487.02Z" transform="translate(0 0)" fill="#707070"/>
    </g>
    <g id="Group_325" data-name="Group 325" transform="translate(-120.914 17886.795)" style="isolation: isolate">
      <path id="Path_2-2" data-name="Path 2" d="M552.43,403.71a50.228,50.228,0,0,0-49.368,50.851,51.257,51.257,0,0,0,9.3,29.5l-71.989,68.943a48.249,48.249,0,0,0-21.922-10.863V366.974a50.712,50.712,0,1,0-58.734-49.866,51.331,51.331,0,0,0,7.847,27.266l-72.482,69.536a47.779,47.779,0,0,0-29.347-10.2,49.811,49.811,0,0,0-48.469,41.683H116.3v18.388H217.256a49.264,49.264,0,0,0,97.913-9.214,51.821,51.821,0,0,0-7.847-27.265l72.442-69.5a48.393,48.393,0,0,0,20.856,9.3V542.058A50.694,50.694,0,1,0,458.5,592.091a51.114,51.114,0,0,0-6.61-24.943l73.3-70.2a48.006,48.006,0,0,0,27.24,8.521,49.849,49.849,0,0,0,48.519-41.682H704.914V445.392H600.949A49.854,49.854,0,0,0,552.43,403.71ZM265.74,487.02a32.454,32.454,0,1,1,31.528-32.458A32.037,32.037,0,0,1,265.74,487.02ZM377.592,317.092a31.532,31.532,0,1,1,31.518,32.458A32.03,32.03,0,0,1,377.592,317.092ZM409.11,624.478a32.452,32.452,0,1,1,31.518-32.418A32,32,0,0,1,409.11,624.478ZM552.43,487.02A32.453,32.453,0,1,1,584,454.561,32.032,32.032,0,0,1,552.43,487.02Z" transform="translate(0 0)" fill="#707070"/>
    </g>
    <line id="Line_22" data-name="Line 22" x2="763" transform="translate(568.5 18341.5)" fill="none" stroke="#707070" stroke-width="18"/>
  </g>
</svg>
